<svg width="493" height="36" viewBox="0 0 493 36" fill="none" xmlns="http://www.w3.org/2000/svg">
<path d="M25.784 19.784H29V29.384H25.784V35H13.88V29.384H0.2V20.696L8.888 1.4H20.312L12.584 19.784H15.224L18.584 11.96H25.784V19.784ZM65.2588 1.4V12.824H54.8428V35H42.0748V12.824H31.6588V1.4H65.2588ZM91.5995 1.4H104.416V35H91.5995V23.912H81.6635V35H68.8475V1.4H81.6635V12.488H91.5995V1.4ZM156.463 1.4V12.824H145.375V35H132.559V12.824H121.471V1.4H156.463ZM179.23 0.487998C191.374 0.487998 199.582 6.2 199.582 18.2C199.582 30.152 191.374 35.912 179.23 35.912C167.086 35.912 158.878 30.152 158.878 18.2C158.878 6.2 167.086 0.487998 179.23 0.487998ZM179.23 23.864C183.262 23.864 185.661 21.656 185.661 18.2C185.661 14.744 183.262 12.488 179.23 12.488C175.198 12.488 172.798 14.744 172.798 18.2C172.798 21.656 175.198 23.864 179.23 23.864ZM237.188 13.64C242.18 14.456 245.252 18.44 245.108 23.48C244.772 32.6 239.636 35.912 231.14 35.912C222.692 35.912 216.404 30.968 216.02 22.52C215.156 1.976 224.708 0.487998 230.132 0.487998C237.044 0.487998 244.388 3.32 244.388 12.248C240.404 12.248 232.484 12.248 232.484 12.248C232.484 10.28 231.908 9.368 230.324 9.368C228.74 9.368 227.444 10.904 227.396 15.848H227.684C229.7 13.976 233.204 13.016 237.188 13.64ZM230.804 27.512C232.436 27.512 233.78 26.12 233.78 24.44C233.78 22.76 232.628 21.368 230.804 21.368C228.98 21.368 227.828 22.76 227.828 24.44C227.828 26.12 229.172 27.512 230.804 27.512ZM283.026 1.4V12.824H271.938V35H259.122V12.824H248.034V1.4H283.026ZM313.077 1.4H325.893V35H313.077V23.912H299.445V35H286.629V1.4H299.445V12.488H313.077V1.4ZM373.82 1.4V20.024C373.82 30.92 369.884 35.912 358.364 35.912C347.804 35.912 342.956 30.056 342.956 20.408H355.772C355.772 22.712 356.684 23.96 358.364 23.96C360.428 23.96 361.004 22.808 361.004 20.024V12.824H350.732V1.4H373.82ZM401.313 1.4H414.081V18.68C414.081 30.056 407.985 35.912 396.129 35.912C384.225 35.912 378.129 30.056 378.129 18.68V1.4H390.945V18.68C390.945 22.472 393.105 23.96 396.129 23.96C399.153 23.96 401.313 22.472 401.313 18.68V1.4ZM444.602 1.4H457.418V35H442.346L431.978 17.864H431.21V35H418.394V1.4H433.946L443.834 18.104H444.602V1.4ZM492.282 11.48H474.522V13.64H490.89V22.76H474.522V24.968H492.282V35H461.754V1.4H492.282V11.48Z" fill="#FFFEFC" fill-opacity="0.91"/>
</svg>
