<svg width="500.8" height="77.6" viewBox="0 0 626 97" fill="none" xmlns="http://www.w3.org/2000/svg">
<path d="M0 10C0 4.47715 4.47715 0 10 0H616C621.523 0 626 4.47715 626 10V87C626 92.5228 621.523 97 616 97H10C4.47717 97 0 92.5228 0 87V10Z" fill="white"/>
<path d="M71.5926 43.98C67.5726 43.98 64.9926 46.26 63.9726 50.16C62.8326 54.48 65.3526 58.02 69.3126 58.02C72.3726 58.02 74.1726 56.76 75.8526 53.82H92.8326C89.8326 65.46 82.0926 73.14 66.4326 73.14C54.0726 73.14 43.3326 64.38 46.0926 49.86C48.4926 37.2 57.4926 28.86 71.5926 28.86C84.8526 28.86 95.1126 36.6 93.5526 48.18H76.8726C76.6926 45.48 74.7126 43.92 71.5926 43.98ZM124.32 28.86C139.26 28.86 149.64 37.98 146.88 52.8C144.84 63.96 135.06 73.14 119.4 73.14C104.16 73.14 93.7204 65.16 96.6004 49.74C99.0004 36.9 108.18 28.86 124.32 28.86ZM129.72 51.48C130.5 47.28 128.16 43.92 122.52 43.92C116.94 43.92 114.6 46.5 113.82 50.58C113.1 54.54 115.8 58.08 120.84 58.08C125.82 58.08 128.88 56.04 129.72 51.48ZM192.034 30H219.514L211.714 72H195.754L200.914 44.28H200.014L188.614 72H169.954L169.354 44.28H168.454L163.354 72H147.334L155.134 30H181.354L181.654 54.3H182.614L192.034 30ZM251.739 44.28H245.139L242.679 57.72H249.219L246.579 72H217.119L219.819 57.72H226.659L229.179 44.28H222.339L224.979 30H254.379L251.739 44.28ZM307.002 30L299.202 72H283.002L272.742 51.12H271.842L268.002 72H251.982L259.782 30H275.982L286.302 50.88H287.142L291.042 30H307.002ZM334.059 43.98C329.619 43.98 326.319 46.26 325.299 50.16C323.919 55.26 326.559 59.22 331.779 59.22C333.879 59.22 335.559 58.68 336.939 57.9L337.059 57.18H334.059L335.499 49.56H357.759L353.559 72H343.299L343.719 69.6C339.819 71.76 335.079 73.14 329.319 73.14C317.019 73.14 304.659 64.38 307.419 49.86C309.759 37.2 319.479 28.86 334.059 28.86C347.319 28.86 359.499 36.6 357.939 48.18H340.539C340.299 45.54 337.239 43.98 334.059 43.98ZM420.812 43.26C415.832 43.26 405.992 43.26 405.992 43.26C406.352 41.1 403.952 40.02 401.912 39.96C399.452 39.84 397.652 40.32 397.352 41.88C396.992 44.04 402.692 44.94 406.592 46.2C412.292 48.06 420.752 49.98 418.832 60.06C417.152 69.24 409.472 73.14 397.052 73.14C382.112 73.14 375.512 65.4 376.952 57.84C381.272 57.84 391.892 57.84 391.892 57.84C391.412 60.66 393.932 61.38 396.332 61.56C399.152 61.8 400.892 61.32 401.132 59.82C401.492 57.9 400.772 57.36 396.152 55.86C386.192 52.68 379.712 49.08 381.212 40.74C383.192 30.12 395.132 28.86 403.592 28.86C410.972 28.86 422.792 32.64 420.812 43.26ZM451.039 28.86C465.979 28.86 476.359 37.98 473.599 52.8C471.559 63.96 461.779 73.14 446.119 73.14C430.879 73.14 420.439 65.16 423.319 49.74C425.719 36.9 434.899 28.86 451.039 28.86ZM456.439 51.48C457.219 47.28 454.879 43.92 449.239 43.92C443.659 43.92 441.319 46.5 440.539 50.58C439.819 54.54 442.519 58.08 447.559 58.08C452.539 58.08 455.599 56.04 456.439 51.48ZM504.652 28.86C519.592 28.86 529.972 37.98 527.212 52.8C525.172 63.96 515.392 73.14 499.732 73.14C484.492 73.14 474.052 65.16 476.932 49.74C479.332 36.9 488.512 28.86 504.652 28.86ZM510.052 51.48C510.832 47.28 508.492 43.92 502.852 43.92C497.272 43.92 494.932 46.5 494.152 50.58C493.432 54.54 496.132 58.08 501.172 58.08C506.152 58.08 509.212 56.04 510.052 51.48ZM582.686 30L574.886 72H558.686L548.426 51.12H547.526L543.686 72H527.666L535.466 30H551.666L561.986 50.88H562.826L566.726 30H582.686Z" fill="black"/>
</svg>
