<svg width="502" height="36" viewBox="0 0 502 36" fill="none" xmlns="http://www.w3.org/2000/svg">
<path d="M29.72 10.376C30.152 24.392 15.176 21.512 14.024 25.4H29.72V35H0.92V28.424C0.92 21.32 5 18.536 8.408 16.712C11.528 15.08 16.76 14.6 16.808 11.336C16.808 10.136 16.184 9.56 15.032 9.56C13.496 9.56 13.016 10.472 13.016 12.392C13.016 12.392 5.288 12.392 1.4 12.392C1.4 3.656 8.552 0.487998 15.272 0.487998C20.6 0.487998 29.432 1.592 29.72 10.376ZM60.0399 1.4H72.8559V35H57.7839L47.4159 17.864H46.6479V35H33.8319V1.4H49.3839L59.2719 18.104H60.0399V1.4ZM97.2553 1.4C108.775 1.4 114.823 7.832 114.823 18.2C114.823 28.568 108.775 35 97.2553 35C96.9193 35 77.1913 35 77.1913 35V1.4C77.1913 1.4 96.9193 1.4 97.2553 1.4ZM95.4793 23.528C99.7513 23.528 101.527 21.32 101.527 18.2C101.527 15.08 99.7513 12.92 95.4793 12.92C93.7513 12.92 90.5353 12.92 90.0073 12.92V23.528C90.5353 23.528 93.7513 23.528 95.4793 23.528ZM166.166 1.4V12.824H155.078V35H142.262V12.824H131.174V1.4H166.166ZM188.933 0.487998C201.077 0.487998 209.285 6.2 209.285 18.2C209.285 30.152 201.077 35.912 188.933 35.912C176.789 35.912 168.581 30.152 168.581 18.2C168.581 6.2 176.789 0.487998 188.933 0.487998ZM188.933 23.864C192.965 23.864 195.365 21.656 195.365 18.2C195.365 14.744 192.965 12.488 188.933 12.488C184.901 12.488 182.501 14.744 182.501 18.2C182.501 21.656 184.901 23.864 188.933 23.864ZM247.468 14.264C252.028 15.368 254.572 19.592 253.948 24.68C252.844 33.608 246.316 35.912 239.452 35.912C232.732 35.912 225.628 32.6 225.628 23.864C229.468 23.864 237.196 23.864 237.196 23.864C237.196 25.784 237.676 26.84 239.212 26.84C240.412 26.84 240.988 25.928 240.988 24.104C240.988 22.184 240.364 21.368 237.388 21.368C234.364 21.368 227.404 21.368 227.404 21.368L228.316 1.4H251.356V11H239.164L238.972 14.6C238.972 14.6 239.212 14.6 239.308 14.6C241.852 13.736 245.212 13.736 247.468 14.264ZM291.932 1.4V12.824H280.844V35H268.028V12.824H256.94V1.4H291.932ZM321.983 1.4H334.799V35H321.983V23.912H308.351V35H295.535V1.4H308.351V12.488H321.983V1.4ZM382.726 1.4V20.024C382.726 30.92 378.79 35.912 367.27 35.912C356.71 35.912 351.862 30.056 351.862 20.408H364.678C364.678 22.712 365.59 23.96 367.27 23.96C369.334 23.96 369.91 22.808 369.91 20.024V12.824H359.638V1.4H382.726ZM410.219 1.4H422.987V18.68C422.987 30.056 416.891 35.912 405.035 35.912C393.131 35.912 387.035 30.056 387.035 18.68V1.4H399.851V18.68C399.851 22.472 402.011 23.96 405.035 23.96C408.059 23.96 410.219 22.472 410.219 18.68V1.4ZM453.509 1.4H466.325V35H451.253L440.885 17.864H440.117V35H427.301V1.4H442.853L452.741 18.104H453.509V1.4ZM501.188 11.48H483.428V13.64H499.796V22.76H483.428V24.968H501.188V35H470.66V1.4H501.188V11.48Z" fill="#FFFEFC" fill-opacity="0.91"/>
</svg>
