<svg width="1022" height="242" viewBox="0 0 1022 242" fill="none" xmlns="http://www.w3.org/2000/svg">
<path d="M141.36 44.92H143.36V42.92H141.36V44.92ZM141.36 70.504V72.504H143.36V70.504H141.36ZM95.112 70.504V68.504H93.112V70.504H95.112ZM95.112 163V165H97.112V163H95.112ZM69.528 163H67.528V165H69.528V163ZM69.528 70.504H71.528V68.504H69.528V70.504ZM23.28 70.504H21.28V72.504H23.28V70.504ZM23.28 44.92V42.92H21.28V44.92H23.28ZM139.36 44.92V70.504H143.36V44.92H139.36ZM141.36 68.504H95.112V72.504H141.36V68.504ZM93.112 70.504V163H97.112V70.504H93.112ZM95.112 161H69.528V165H95.112V161ZM71.528 163V70.504H67.528V163H71.528ZM69.528 68.504H23.28V72.504H69.528V68.504ZM25.28 70.504V44.92H21.28V70.504H25.28ZM23.28 46.92H141.36V42.92H23.28V46.92ZM234.641 69.848L233.803 71.6639L233.845 71.683L233.887 71.7002L234.641 69.848ZM242.185 74.932L240.735 76.3095L240.753 76.3281L240.771 76.3462L242.185 74.932ZM247.269 82.476L245.427 83.2553L245.44 83.2849L245.453 83.3141L247.269 82.476ZM249.237 128.068V130.068H251.237V128.068H249.237ZM177.897 128.068V126.068H175.897V128.068H177.897ZM177.897 137.908H175.897V139.908H177.897V137.908ZM249.237 137.908H251.237V135.908H249.237V137.908ZM249.237 163V165H251.237V163H249.237ZM167.401 161.196L166.563 163.012L166.592 163.025L166.622 163.038L167.401 161.196ZM159.857 155.948L158.443 157.362L159.857 155.948ZM154.609 148.404L152.767 149.183L152.78 149.213L152.793 149.242L154.609 148.404ZM154.609 82.476L152.793 81.6379L152.78 81.6671L152.767 81.6967L154.609 82.476ZM159.857 74.932L161.272 76.3462V76.3462L159.857 74.932ZM167.401 69.848L168.181 71.6899L168.21 71.6774L168.24 71.6639L167.401 69.848ZM224.145 106.092V108.092H226.145V106.092H224.145ZM224.145 92.972H226.145V90.972H224.145V92.972ZM177.897 92.972V90.972H175.897V92.972H177.897ZM177.897 106.092H175.897V108.092H177.897V106.092ZM225.457 69.88C228.462 69.88 231.236 70.479 233.803 71.6639L235.48 68.0321C232.362 66.593 229.013 65.88 225.457 65.88V69.88ZM233.887 71.7002C236.591 72.802 238.865 74.3402 240.735 76.3095L243.635 73.5545C241.352 71.1504 238.596 69.2994 235.396 67.9958L233.887 71.7002ZM240.771 76.3462C242.776 78.3511 244.325 80.6503 245.427 83.2553L249.111 81.6967C247.808 78.6164 245.968 75.8862 243.6 73.5178L240.771 76.3462ZM245.453 83.3141C246.638 85.8815 247.237 88.6553 247.237 91.66H251.237C251.237 88.1047 250.524 84.7558 249.085 81.6379L245.453 83.3141ZM247.237 91.66V128.068H251.237V91.66H247.237ZM249.237 126.068H177.897V130.068H249.237V126.068ZM175.897 128.068V137.908H179.897V128.068H175.897ZM177.897 139.908H249.237V135.908H177.897V139.908ZM247.237 137.908V163H251.237V137.908H247.237ZM249.237 161H176.585V165H249.237V161ZM176.585 161C173.556 161 170.762 160.446 168.181 159.354L166.622 163.038C169.727 164.351 173.055 165 176.585 165V161ZM168.24 159.38C165.608 158.166 163.289 156.552 161.272 154.534L158.443 157.362C160.799 159.718 163.509 161.602 166.563 163.012L168.24 159.38ZM161.272 154.534C159.254 152.516 157.64 150.197 156.425 147.566L152.793 149.242C154.203 152.296 156.088 155.007 158.443 157.362L161.272 154.534ZM156.451 147.625C155.359 145.044 154.805 142.249 154.805 139.22H150.805C150.805 142.751 151.454 146.079 152.767 149.183L156.451 147.625ZM154.805 139.22V91.66H150.805V139.22H154.805ZM154.805 91.66C154.805 88.6307 155.359 85.8362 156.451 83.2553L152.767 81.6967C151.454 84.8011 150.805 88.1293 150.805 91.66H154.805ZM156.425 83.3141C157.64 80.683 159.254 78.3639 161.272 76.3462L158.443 73.5178C156.088 75.8734 154.203 78.5837 152.793 81.6379L156.425 83.3141ZM161.272 76.3462C163.277 74.3413 165.576 72.792 168.181 71.6899L166.622 68.0061C163.542 69.3093 160.812 71.1493 158.443 73.5178L161.272 76.3462ZM168.24 71.6639C170.807 70.479 173.581 69.88 176.585 69.88V65.88C173.03 65.88 169.681 66.593 166.563 68.0321L168.24 71.6639ZM176.585 69.88H225.457V65.88H176.585V69.88ZM226.145 106.092V92.972H222.145V106.092H226.145ZM224.145 90.972H177.897V94.972H224.145V90.972ZM175.897 92.972V106.092H179.897V92.972H175.897ZM177.897 108.092H224.145V104.092H177.897V108.092ZM287.284 92.972V90.972H285.284V92.972H287.284ZM287.284 137.908H285.284V139.908H287.284V137.908ZM358.624 137.908H360.624V135.908H358.624V137.908ZM358.624 163V165H360.624V163H358.624ZM276.788 161.196L275.95 163.012L275.979 163.025L276.009 163.038L276.788 161.196ZM269.244 155.948L267.83 157.362L269.244 155.948ZM263.996 148.404L262.154 149.183L262.167 149.213L262.18 149.242L263.996 148.404ZM263.996 82.476L262.18 81.6379L262.167 81.6671L262.154 81.6967L263.996 82.476ZM269.244 74.932L270.658 76.3462V76.3462L269.244 74.932ZM276.788 69.848L277.567 71.6899L277.597 71.6774L277.626 71.6639L276.788 69.848ZM358.46 67.88H360.46V65.88H358.46V67.88ZM358.46 92.972V94.972H360.46V92.972H358.46ZM285.284 92.972V137.908H289.284V92.972H285.284ZM287.284 139.908H358.624V135.908H287.284V139.908ZM356.624 137.908V163H360.624V137.908H356.624ZM358.624 161H285.972V165H358.624V161ZM285.972 161C282.943 161 280.148 160.446 277.567 159.354L276.009 163.038C279.113 164.351 282.441 165 285.972 165V161ZM277.626 159.38C274.995 158.166 272.676 156.552 270.658 154.534L267.83 157.362C270.186 159.718 272.896 161.602 275.95 163.012L277.626 159.38ZM270.658 154.534C268.641 152.516 267.026 150.197 265.812 147.566L262.18 149.242C263.59 152.296 265.474 155.007 267.83 157.362L270.658 154.534ZM265.838 147.625C264.746 145.044 264.192 142.249 264.192 139.22H260.192C260.192 142.751 260.841 146.079 262.154 149.183L265.838 147.625ZM264.192 139.22V91.66H260.192V139.22H264.192ZM264.192 91.66C264.192 88.6307 264.746 85.8362 265.838 83.2553L262.154 81.6967C260.841 84.8011 260.192 88.1293 260.192 91.66H264.192ZM265.812 83.3141C267.026 80.683 268.641 78.3639 270.658 76.3462L267.83 73.5178C265.474 75.8734 263.59 78.5837 262.18 81.6379L265.812 83.3141ZM270.658 76.3462C272.663 74.3413 274.962 72.792 277.567 71.6899L276.009 68.0061C272.929 69.3093 270.198 71.1493 267.83 73.5178L270.658 76.3462ZM277.626 71.6639C280.194 70.479 282.967 69.88 285.972 69.88V65.88C282.417 65.88 279.068 66.593 275.95 68.0321L277.626 71.6639ZM285.972 69.88H358.46V65.88H285.972V69.88ZM356.46 67.88V92.972H360.46V67.88H356.46ZM358.46 90.972H287.284V94.972H358.46V90.972ZM453.747 69.848L452.909 71.6639L452.938 71.6774L452.967 71.6899L453.747 69.848ZM461.291 74.932L459.876 76.3462V76.3462L461.291 74.932ZM466.375 82.476L464.533 83.2553L464.545 83.2849L464.559 83.3141L466.375 82.476ZM468.343 163V165H470.343V163H468.343ZM443.251 163H441.251V165H443.251V163ZM443.251 92.972H445.251V90.972H443.251V92.972ZM397.003 92.972V90.972H395.003V92.972H397.003ZM397.003 163V165H399.003V163H397.003ZM371.911 163H369.911V165H371.911V163ZM371.911 36.72V34.72H369.911V36.72H371.911ZM397.003 36.72H399.003V34.72H397.003V36.72ZM397.003 67.88H395.003V69.88H397.003V67.88ZM444.563 69.88C447.567 69.88 450.341 70.479 452.909 71.6639L454.585 68.0321C451.467 66.593 448.118 65.88 444.563 65.88V69.88ZM452.967 71.6899C455.572 72.792 457.872 74.3413 459.876 76.3462L462.705 73.5178C460.336 71.1493 457.606 69.3093 454.526 68.0061L452.967 71.6899ZM459.876 76.3462C461.881 78.3511 463.431 80.6503 464.533 83.2553L468.217 81.6967C466.913 78.6164 465.073 75.8862 462.705 73.5178L459.876 76.3462ZM464.559 83.3141C465.744 85.8815 466.343 88.6553 466.343 91.66H470.343C470.343 88.1047 469.63 84.7558 468.191 81.6379L464.559 83.3141ZM466.343 91.66V163H470.343V91.66H466.343ZM468.343 161H443.251V165H468.343V161ZM445.251 163V92.972H441.251V163H445.251ZM443.251 90.972H397.003V94.972H443.251V90.972ZM395.003 92.972V163H399.003V92.972H395.003ZM397.003 161H371.911V165H397.003V161ZM373.911 163V36.72H369.911V163H373.911ZM371.911 38.72H397.003V34.72H371.911V38.72ZM395.003 36.72V67.88H399.003V36.72H395.003ZM397.003 69.88H444.563V65.88H397.003V69.88ZM506.386 92.972V90.972H504.386V92.972H506.386ZM506.386 137.908H504.386V139.908H506.386V137.908ZM541.646 137.908H543.646V135.908H541.646V137.908ZM541.646 163V165H543.646V163H541.646ZM495.89 161.196L495.077 163.024L495.106 163.036L495.135 163.048L495.89 161.196ZM488.182 155.948L486.732 157.326L486.749 157.344L486.767 157.362L488.182 155.948ZM483.098 148.404L481.256 149.183L481.268 149.213L481.282 149.242L483.098 148.404ZM481.294 39.672V37.672H479.294V39.672H481.294ZM506.386 39.672H508.386V37.672H506.386V39.672ZM506.386 67.88H504.386V69.88H506.386V67.88ZM541.646 67.88H543.646V65.88H541.646V67.88ZM541.646 92.972V94.972H543.646V92.972H541.646ZM504.386 92.972V137.908H508.386V92.972H504.386ZM506.386 139.908H541.646V135.908H506.386V139.908ZM539.646 137.908V163H543.646V137.908H539.646ZM541.646 161H505.238V165H541.646V161ZM505.238 161C502.209 161 499.35 160.446 496.644 159.344L495.135 163.048C498.334 164.351 501.707 165 505.238 165V161ZM496.702 159.368C493.964 158.152 491.601 156.539 489.596 154.534L486.767 157.362C489.135 159.73 491.911 161.616 495.077 163.024L496.702 159.368ZM489.632 154.571C487.711 152.548 486.137 150.218 484.913 147.566L481.282 149.242C482.682 152.276 484.498 154.974 486.732 157.326L489.632 154.571ZM484.939 147.625C483.848 145.044 483.294 142.249 483.294 139.22H479.294C479.294 142.751 479.942 146.079 481.256 149.183L484.939 147.625ZM483.294 139.22V39.672H479.294V139.22H483.294ZM481.294 41.672H506.386V37.672H481.294V41.672ZM504.386 39.672V67.88H508.386V39.672H504.386ZM506.386 69.88H541.646V65.88H506.386V69.88ZM539.646 67.88V92.972H543.646V67.88H539.646ZM541.646 90.972H506.386V94.972H541.646V90.972ZM633.147 67.88H635.147V65.88H633.147V67.88ZM633.147 92.972V94.972H635.147V92.972H633.147ZM581.815 92.972V90.972H579.815V92.972H581.815ZM581.815 163V165H583.815V163H581.815ZM556.723 163H554.723V165H556.723V163ZM558.527 82.476L556.711 81.6379L556.698 81.6671L556.685 81.6967L558.527 82.476ZM563.775 74.932L565.19 76.3462V76.3462L563.775 74.932ZM571.319 69.848L572.099 71.6899L572.115 71.6829L572.132 71.6756L571.319 69.848ZM631.147 67.88V92.972H635.147V67.88H631.147ZM633.147 90.972H581.815V94.972H633.147V90.972ZM579.815 92.972V163H583.815V92.972H579.815ZM581.815 161H556.723V165H581.815V161ZM558.723 163V91.66H554.723V163H558.723ZM558.723 91.66C558.723 88.6307 559.277 85.8362 560.369 83.2553L556.685 81.6967C555.372 84.8011 554.723 88.1293 554.723 91.66H558.723ZM560.343 83.3141C561.558 80.683 563.172 78.3639 565.19 76.3462L562.361 73.5178C560.005 75.8734 558.121 78.5837 556.711 81.6379L560.343 83.3141ZM565.19 76.3462C567.194 74.3413 569.494 72.792 572.099 71.6899L570.54 68.0061C567.46 69.3093 564.73 71.1493 562.361 73.5178L565.19 76.3462ZM572.132 71.6756C574.824 70.4791 577.663 69.88 580.667 69.88V65.88C577.112 65.88 573.719 66.5929 570.507 68.0204L572.132 71.6756ZM580.667 69.88H633.147V65.88H580.667V69.88ZM725.52 69.848L724.682 71.6639L724.724 71.683L724.766 71.7002L725.52 69.848ZM733.064 74.932L731.614 76.3095L731.632 76.3281L731.65 76.3462L733.064 74.932ZM738.148 82.476L736.306 83.2553L736.319 83.2849L736.332 83.3141L738.148 82.476ZM738.148 148.404L736.332 147.566L736.319 147.595L736.306 147.625L738.148 148.404ZM733.064 155.948L731.65 154.534L731.632 154.552L731.614 154.571L733.064 155.948ZM725.52 161.196L726.3 163.038L726.316 163.031L726.333 163.024L725.52 161.196ZM658.28 161.196L657.442 163.012L657.471 163.025L657.501 163.038L658.28 161.196ZM650.736 155.948L649.322 157.362L650.736 155.948ZM645.488 148.404L643.646 149.183L643.659 149.213L643.672 149.242L645.488 148.404ZM645.488 82.476L643.672 81.6379L643.659 81.6671L643.646 81.6967L645.488 82.476ZM650.736 74.932L652.151 76.3462V76.3462L650.736 74.932ZM658.28 69.848L659.06 71.6899L659.089 71.6774L659.118 71.6639L658.28 69.848ZM668.776 137.908H666.776V139.908H668.776V137.908ZM715.024 137.908V139.908H717.024V137.908H715.024ZM715.024 92.972H717.024V90.972H715.024V92.972ZM668.776 92.972V90.972H666.776V92.972H668.776ZM716.336 69.88C719.341 69.88 722.115 70.479 724.682 71.6639L726.358 68.0321C723.24 66.593 719.892 65.88 716.336 65.88V69.88ZM724.766 71.7002C727.47 72.802 729.744 74.3402 731.614 76.3095L734.514 73.5545C732.23 71.1504 729.475 69.2994 726.275 67.9958L724.766 71.7002ZM731.65 76.3462C733.655 78.3511 735.204 80.6503 736.306 83.2553L739.99 81.6967C738.687 78.6164 736.847 75.8862 734.479 73.5178L731.65 76.3462ZM736.332 83.3141C737.517 85.8815 738.116 88.6553 738.116 91.66H742.116C742.116 88.1047 741.403 84.7558 739.964 81.6379L736.332 83.3141ZM738.116 91.66V139.22H742.116V91.66H738.116ZM738.116 139.22C738.116 142.225 737.517 144.998 736.332 147.566L739.964 149.242C741.403 146.124 742.116 142.775 742.116 139.22H738.116ZM736.306 147.625C735.204 150.23 733.655 152.529 731.65 154.534L734.479 157.362C736.847 154.994 738.687 152.264 739.99 149.183L736.306 147.625ZM731.614 154.571C729.73 156.553 727.437 158.155 724.708 159.368L726.333 163.024C729.507 161.613 732.243 159.716 734.514 157.326L731.614 154.571ZM724.741 159.354C722.16 160.446 719.366 161 716.336 161V165C719.867 165 723.195 164.351 726.3 163.038L724.741 159.354ZM716.336 161H667.464V165H716.336V161ZM667.464 161C664.435 161 661.641 160.446 659.06 159.354L657.501 163.038C660.605 164.351 663.934 165 667.464 165V161ZM659.118 159.38C656.487 158.166 654.168 156.552 652.151 154.534L649.322 157.362C651.678 159.718 654.388 161.602 657.442 163.012L659.118 159.38ZM652.151 154.534C650.133 152.516 648.519 150.197 647.304 147.566L643.672 149.242C645.082 152.296 646.966 155.007 649.322 157.362L652.151 154.534ZM647.33 147.625C646.238 145.044 645.684 142.249 645.684 139.22H641.684C641.684 142.751 642.333 146.079 643.646 149.183L647.33 147.625ZM645.684 139.22V91.66H641.684V139.22H645.684ZM645.684 91.66C645.684 88.6307 646.238 85.8362 647.33 83.2553L643.646 81.6967C642.333 84.8011 641.684 88.1293 641.684 91.66H645.684ZM647.304 83.3141C648.519 80.683 650.133 78.3639 652.151 76.3462L649.322 73.5178C646.966 75.8734 645.082 78.5837 643.672 81.6379L647.304 83.3141ZM652.151 76.3462C654.155 74.3413 656.455 72.792 659.06 71.6899L657.501 68.0061C654.421 69.3093 651.691 71.1493 649.322 73.5178L652.151 76.3462ZM659.118 71.6639C661.686 70.479 664.46 69.88 667.464 69.88V65.88C663.909 65.88 660.56 66.593 657.442 68.0321L659.118 71.6639ZM667.464 69.88H716.336V65.88H667.464V69.88ZM668.776 139.908H715.024V135.908H668.776V139.908ZM717.024 137.908V92.972H713.024V137.908H717.024ZM715.024 90.972H668.776V94.972H715.024V90.972ZM666.776 92.972V137.908H670.776V92.972H666.776ZM834.758 69.848L833.92 71.6639L833.962 71.683L834.004 71.7002L834.758 69.848ZM842.302 74.932L840.852 76.3095L840.87 76.3281L840.888 76.3462L842.302 74.932ZM847.386 82.476L845.544 83.2553L845.557 83.2849L845.57 83.3141L847.386 82.476ZM849.354 163V165H851.354V163H849.354ZM824.262 163H822.262V165H824.262V163ZM824.262 92.972H826.262V90.972H824.262V92.972ZM778.014 92.972V90.972H776.014V92.972H778.014ZM778.014 163V165H780.014V163H778.014ZM752.922 163H750.922V165H752.922V163ZM752.922 67.88V65.88H750.922V67.88H752.922ZM825.574 69.88C828.579 69.88 831.353 70.479 833.92 71.6639L835.597 68.0321C832.479 66.593 829.13 65.88 825.574 65.88V69.88ZM834.004 71.7002C836.708 72.802 838.982 74.3402 840.852 76.3095L843.752 73.5545C841.469 71.1504 838.713 69.2994 835.513 67.9958L834.004 71.7002ZM840.888 76.3462C842.893 78.3511 844.442 80.6503 845.544 83.2553L849.228 81.6967C847.925 78.6164 846.085 75.8862 843.717 73.5178L840.888 76.3462ZM845.57 83.3141C846.755 85.8815 847.354 88.6553 847.354 91.66H851.354C851.354 88.1047 850.641 84.7558 849.202 81.6379L845.57 83.3141ZM847.354 91.66V163H851.354V91.66H847.354ZM849.354 161H824.262V165H849.354V161ZM826.262 163V92.972H822.262V163H826.262ZM824.262 90.972H778.014V94.972H824.262V90.972ZM776.014 92.972V163H780.014V92.972H776.014ZM778.014 161H752.922V165H778.014V161ZM754.922 163V67.88H750.922V163H754.922ZM752.922 69.88H825.574V65.88H752.922V69.88ZM866.786 67.88V65.88H864.786V67.88H866.786ZM891.878 67.88H893.878V65.88H891.878V67.88ZM891.878 163V165H893.878V163H891.878ZM866.786 163H864.786V165H866.786V163ZM891.878 36.72H893.878V34.72H891.878V36.72ZM891.878 61.976V63.976H893.878V61.976H891.878ZM866.786 61.976H864.786V63.976H866.786V61.976ZM866.786 36.72V34.72H864.786V36.72H866.786ZM866.786 69.88H891.878V65.88H866.786V69.88ZM889.878 67.88V163H893.878V67.88H889.878ZM891.878 161H866.786V165H891.878V161ZM868.786 163V67.88H864.786V163H868.786ZM889.878 36.72V61.976H893.878V36.72H889.878ZM891.878 59.976H866.786V63.976H891.878V59.976ZM868.786 61.976V36.72H864.786V61.976H868.786ZM866.786 38.72H891.878V34.72H866.786V38.72ZM1021.36 44.92H1023.36V42.92H1021.36V44.92ZM1021.36 53.612L1022.89 54.8987L1023.36 54.3408V53.612H1021.36ZM979.046 103.96L977.515 102.673L976.432 103.962L977.517 105.249L979.046 103.96ZM1021.36 154.144H1023.36V153.413L1022.89 152.855L1021.36 154.144ZM1021.36 163V165H1023.36V163H1021.36ZM994.954 163L993.429 164.293L994.028 165H994.954V163ZM962.154 124.296L963.68 123.003L962.148 121.195L960.623 123.01L962.154 124.296ZM954.61 133.316L956.125 134.622L956.136 134.609L956.147 134.596L954.61 133.316ZM946.246 143.156L947.779 144.441L946.246 143.156ZM937.718 153.324L939.251 154.609L937.718 153.324ZM929.682 163V165H930.628L931.228 164.269L929.682 163ZM903.278 163H901.278V165H903.278V163ZM903.278 154.308L901.745 153.024L901.278 153.581V154.308H903.278ZM945.426 103.96L946.96 105.244L948.029 103.966L946.966 102.684L945.426 103.96ZM924.434 78.704L922.898 79.9844L924.434 78.704ZM903.278 53.612H901.278V54.3493L901.757 54.9102L903.278 53.612ZM903.278 44.92V42.92H901.278V44.92H903.278ZM929.682 44.92L931.211 43.6301L930.612 42.92H929.682V44.92ZM962.482 83.788L960.954 85.0779L962.524 86.938L964.044 85.0374L962.482 83.788ZM969.862 74.768L968.326 73.4876V73.4876L969.862 74.768ZM978.226 64.928L979.738 66.2379L979.748 66.2256L979.759 66.2132L978.226 64.928ZM986.754 54.76L985.246 53.4464L985.234 53.4605L985.222 53.4748L986.754 54.76ZM994.954 44.92V42.92H993.988L993.387 43.6772L994.954 44.92ZM1019.36 44.92V53.612H1023.36V44.92H1019.36ZM1019.83 52.3253L977.515 102.673L980.578 105.247L1022.89 54.8987L1019.83 52.3253ZM977.517 105.249L1019.83 155.433L1022.89 152.855L980.575 102.671L977.517 105.249ZM1019.36 154.144V163H1023.36V154.144H1019.36ZM1021.36 161H994.954V165H1021.36V161ZM996.48 161.707L963.68 123.003L960.629 125.589L993.429 164.293L996.48 161.707ZM960.623 123.01C958.325 125.745 955.809 128.754 953.074 132.036L956.147 134.596C958.879 131.318 961.392 128.313 963.686 125.582L960.623 123.01ZM953.096 132.01C950.356 135.188 947.562 138.475 944.714 141.871L947.779 144.441C950.616 141.058 953.398 137.785 956.125 134.622L953.096 132.01ZM944.714 141.871C941.871 145.26 939.029 148.649 936.186 152.039L939.251 154.609C942.093 151.22 944.936 147.831 947.779 144.441L944.714 141.871ZM936.186 152.039C933.339 155.433 930.656 158.663 928.137 161.731L931.228 164.269C933.738 161.214 936.412 157.994 939.251 154.609L936.186 152.039ZM929.682 161H903.278V165H929.682V161ZM905.278 163V154.308H901.278V163H905.278ZM904.812 155.592L946.96 105.244L943.893 102.676L901.745 153.024L904.812 155.592ZM946.966 102.684C940.077 94.3729 933.079 85.9529 925.971 77.4236L922.898 79.9844C930.004 88.5111 937 96.9284 943.887 105.236L946.966 102.684ZM925.971 77.4236C918.859 68.8898 911.802 60.5199 904.8 52.3138L901.757 54.9102C908.749 63.1041 915.796 71.4622 922.898 79.9844L925.971 77.4236ZM905.278 53.612V44.92H901.278V53.612H905.278ZM903.278 46.92H929.682V42.92H903.278V46.92ZM928.154 46.2099L960.954 85.0779L964.011 82.4981L931.211 43.6301L928.154 46.2099ZM964.044 85.0374C966.221 82.3164 968.672 79.3203 971.399 76.0484L968.326 73.4876C965.586 76.7757 963.117 79.7929 960.921 82.5386L964.044 85.0374ZM971.399 76.0484C974.124 72.7784 976.903 69.5083 979.738 66.2379L976.715 63.6181C973.864 66.9077 971.068 70.1976 968.326 73.4876L971.399 76.0484ZM979.759 66.2132C982.601 62.8239 985.444 59.4346 988.287 56.0452L985.222 53.4748C982.379 56.8641 979.537 60.2534 976.694 63.6428L979.759 66.2132ZM988.263 56.0736C991.233 52.6636 993.986 49.3599 996.521 46.1628L993.387 43.6772C990.894 46.8214 988.18 50.0777 985.246 53.4464L988.263 56.0736ZM994.954 46.92H1021.36V42.92H994.954V46.92Z" fill="white"/>
<path d="M133.36 33.92H135.36V31.92H133.36V33.92ZM133.36 59.504V61.504H135.36V59.504H133.36ZM87.112 59.504V57.504H85.112V59.504H87.112ZM87.112 152V154H89.112V152H87.112ZM61.528 152H59.528V154H61.528V152ZM61.528 59.504H63.528V57.504H61.528V59.504ZM15.28 59.504H13.28V61.504H15.28V59.504ZM15.28 33.92V31.92H13.28V33.92H15.28ZM131.36 33.92V59.504H135.36V33.92H131.36ZM133.36 57.504H87.112V61.504H133.36V57.504ZM85.112 59.504V152H89.112V59.504H85.112ZM87.112 150H61.528V154H87.112V150ZM63.528 152V59.504H59.528V152H63.528ZM61.528 57.504H15.28V61.504H61.528V57.504ZM17.28 59.504V33.92H13.28V59.504H17.28ZM15.28 35.92H133.36V31.92H15.28V35.92ZM226.641 58.848L225.803 60.6639L225.845 60.683L225.887 60.7002L226.641 58.848ZM234.185 63.932L232.735 65.3095L232.753 65.3281L232.771 65.3462L234.185 63.932ZM239.269 71.476L237.427 72.2553L237.44 72.2849L237.453 72.3141L239.269 71.476ZM241.237 117.068V119.068H243.237V117.068H241.237ZM169.897 117.068V115.068H167.897V117.068H169.897ZM169.897 126.908H167.897V128.908H169.897V126.908ZM241.237 126.908H243.237V124.908H241.237V126.908ZM241.237 152V154H243.237V152H241.237ZM159.401 150.196L158.563 152.012L158.592 152.025L158.622 152.038L159.401 150.196ZM151.857 144.948L150.443 146.362L151.857 144.948ZM146.609 137.404L144.767 138.183L144.78 138.213L144.793 138.242L146.609 137.404ZM146.609 71.476L144.793 70.6379L144.78 70.6671L144.767 70.6967L146.609 71.476ZM151.857 63.932L153.272 65.3462V65.3462L151.857 63.932ZM159.401 58.848L160.181 60.6899L160.21 60.6774L160.24 60.6639L159.401 58.848ZM216.145 95.092V97.092H218.145V95.092H216.145ZM216.145 81.972H218.145V79.972H216.145V81.972ZM169.897 81.972V79.972H167.897V81.972H169.897ZM169.897 95.092H167.897V97.092H169.897V95.092ZM217.457 58.88C220.462 58.88 223.236 59.479 225.803 60.6639L227.48 57.0321C224.362 55.593 221.013 54.88 217.457 54.88V58.88ZM225.887 60.7002C228.591 61.802 230.865 63.3402 232.735 65.3095L235.635 62.5545C233.352 60.1504 230.596 58.2994 227.396 56.9958L225.887 60.7002ZM232.771 65.3462C234.776 67.3511 236.325 69.6503 237.427 72.2553L241.111 70.6967C239.808 67.6164 237.968 64.8862 235.6 62.5178L232.771 65.3462ZM237.453 72.3141C238.638 74.8815 239.237 77.6553 239.237 80.66H243.237C243.237 77.1047 242.524 73.7558 241.085 70.6379L237.453 72.3141ZM239.237 80.66V117.068H243.237V80.66H239.237ZM241.237 115.068H169.897V119.068H241.237V115.068ZM167.897 117.068V126.908H171.897V117.068H167.897ZM169.897 128.908H241.237V124.908H169.897V128.908ZM239.237 126.908V152H243.237V126.908H239.237ZM241.237 150H168.585V154H241.237V150ZM168.585 150C165.556 150 162.762 149.446 160.181 148.354L158.622 152.038C161.727 153.351 165.055 154 168.585 154V150ZM160.24 148.38C157.608 147.166 155.289 145.552 153.272 143.534L150.443 146.362C152.799 148.718 155.509 150.602 158.563 152.012L160.24 148.38ZM153.272 143.534C151.254 141.516 149.64 139.197 148.425 136.566L144.793 138.242C146.203 141.296 148.088 144.007 150.443 146.362L153.272 143.534ZM148.451 136.625C147.359 134.044 146.805 131.249 146.805 128.22H142.805C142.805 131.751 143.454 135.079 144.767 138.183L148.451 136.625ZM146.805 128.22V80.66H142.805V128.22H146.805ZM146.805 80.66C146.805 77.6307 147.359 74.8362 148.451 72.2553L144.767 70.6967C143.454 73.8011 142.805 77.1293 142.805 80.66H146.805ZM148.425 72.3141C149.64 69.683 151.254 67.3639 153.272 65.3462L150.443 62.5178C148.088 64.8734 146.203 67.5837 144.793 70.6379L148.425 72.3141ZM153.272 65.3462C155.277 63.3413 157.576 61.792 160.181 60.6899L158.622 57.0061C155.542 58.3093 152.812 60.1493 150.443 62.5178L153.272 65.3462ZM160.24 60.6639C162.807 59.479 165.581 58.88 168.585 58.88V54.88C165.03 54.88 161.681 55.593 158.563 57.0321L160.24 60.6639ZM168.585 58.88H217.457V54.88H168.585V58.88ZM218.145 95.092V81.972H214.145V95.092H218.145ZM216.145 79.972H169.897V83.972H216.145V79.972ZM167.897 81.972V95.092H171.897V81.972H167.897ZM169.897 97.092H216.145V93.092H169.897V97.092ZM279.284 81.972V79.972H277.284V81.972H279.284ZM279.284 126.908H277.284V128.908H279.284V126.908ZM350.624 126.908H352.624V124.908H350.624V126.908ZM350.624 152V154H352.624V152H350.624ZM268.788 150.196L267.95 152.012L267.979 152.025L268.009 152.038L268.788 150.196ZM261.244 144.948L259.83 146.362L261.244 144.948ZM255.996 137.404L254.154 138.183L254.167 138.213L254.18 138.242L255.996 137.404ZM255.996 71.476L254.18 70.6379L254.167 70.6671L254.154 70.6967L255.996 71.476ZM261.244 63.932L262.658 65.3462V65.3462L261.244 63.932ZM268.788 58.848L269.567 60.6899L269.597 60.6774L269.626 60.6639L268.788 58.848ZM350.46 56.88H352.46V54.88H350.46V56.88ZM350.46 81.972V83.972H352.46V81.972H350.46ZM277.284 81.972V126.908H281.284V81.972H277.284ZM279.284 128.908H350.624V124.908H279.284V128.908ZM348.624 126.908V152H352.624V126.908H348.624ZM350.624 150H277.972V154H350.624V150ZM277.972 150C274.943 150 272.148 149.446 269.567 148.354L268.009 152.038C271.113 153.351 274.441 154 277.972 154V150ZM269.626 148.38C266.995 147.166 264.676 145.552 262.658 143.534L259.83 146.362C262.186 148.718 264.896 150.602 267.95 152.012L269.626 148.38ZM262.658 143.534C260.641 141.516 259.026 139.197 257.812 136.566L254.18 138.242C255.59 141.296 257.474 144.007 259.83 146.362L262.658 143.534ZM257.838 136.625C256.746 134.044 256.192 131.249 256.192 128.22H252.192C252.192 131.751 252.841 135.079 254.154 138.183L257.838 136.625ZM256.192 128.22V80.66H252.192V128.22H256.192ZM256.192 80.66C256.192 77.6307 256.746 74.8362 257.838 72.2553L254.154 70.6967C252.841 73.8011 252.192 77.1293 252.192 80.66H256.192ZM257.812 72.3141C259.026 69.683 260.641 67.3639 262.658 65.3462L259.83 62.5178C257.474 64.8734 255.59 67.5837 254.18 70.6379L257.812 72.3141ZM262.658 65.3462C264.663 63.3413 266.962 61.792 269.567 60.6899L268.009 57.0061C264.929 58.3093 262.198 60.1493 259.83 62.5178L262.658 65.3462ZM269.626 60.6639C272.194 59.479 274.967 58.88 277.972 58.88V54.88C274.417 54.88 271.068 55.593 267.95 57.0321L269.626 60.6639ZM277.972 58.88H350.46V54.88H277.972V58.88ZM348.46 56.88V81.972H352.46V56.88H348.46ZM350.46 79.972H279.284V83.972H350.46V79.972ZM445.747 58.848L444.909 60.6639L444.938 60.6774L444.967 60.6899L445.747 58.848ZM453.291 63.932L451.876 65.3462V65.3462L453.291 63.932ZM458.375 71.476L456.533 72.2553L456.545 72.2849L456.559 72.3141L458.375 71.476ZM460.343 152V154H462.343V152H460.343ZM435.251 152H433.251V154H435.251V152ZM435.251 81.972H437.251V79.972H435.251V81.972ZM389.003 81.972V79.972H387.003V81.972H389.003ZM389.003 152V154H391.003V152H389.003ZM363.911 152H361.911V154H363.911V152ZM363.911 25.72V23.72H361.911V25.72H363.911ZM389.003 25.72H391.003V23.72H389.003V25.72ZM389.003 56.88H387.003V58.88H389.003V56.88ZM436.563 58.88C439.567 58.88 442.341 59.479 444.909 60.6639L446.585 57.0321C443.467 55.593 440.118 54.88 436.563 54.88V58.88ZM444.967 60.6899C447.572 61.792 449.872 63.3413 451.876 65.3462L454.705 62.5178C452.336 60.1493 449.606 58.3093 446.526 57.0061L444.967 60.6899ZM451.876 65.3462C453.881 67.3511 455.431 69.6503 456.533 72.2553L460.217 70.6967C458.913 67.6164 457.073 64.8862 454.705 62.5178L451.876 65.3462ZM456.559 72.3141C457.744 74.8815 458.343 77.6553 458.343 80.66H462.343C462.343 77.1047 461.63 73.7558 460.191 70.6379L456.559 72.3141ZM458.343 80.66V152H462.343V80.66H458.343ZM460.343 150H435.251V154H460.343V150ZM437.251 152V81.972H433.251V152H437.251ZM435.251 79.972H389.003V83.972H435.251V79.972ZM387.003 81.972V152H391.003V81.972H387.003ZM389.003 150H363.911V154H389.003V150ZM365.911 152V25.72H361.911V152H365.911ZM363.911 27.72H389.003V23.72H363.911V27.72ZM387.003 25.72V56.88H391.003V25.72H387.003ZM389.003 58.88H436.563V54.88H389.003V58.88ZM498.386 81.972V79.972H496.386V81.972H498.386ZM498.386 126.908H496.386V128.908H498.386V126.908ZM533.646 126.908H535.646V124.908H533.646V126.908ZM533.646 152V154H535.646V152H533.646ZM487.89 150.196L487.077 152.024L487.106 152.036L487.135 152.048L487.89 150.196ZM480.182 144.948L478.732 146.326L478.749 146.344L478.767 146.362L480.182 144.948ZM475.098 137.404L473.256 138.183L473.268 138.213L473.282 138.242L475.098 137.404ZM473.294 28.672V26.672H471.294V28.672H473.294ZM498.386 28.672H500.386V26.672H498.386V28.672ZM498.386 56.88H496.386V58.88H498.386V56.88ZM533.646 56.88H535.646V54.88H533.646V56.88ZM533.646 81.972V83.972H535.646V81.972H533.646ZM496.386 81.972V126.908H500.386V81.972H496.386ZM498.386 128.908H533.646V124.908H498.386V128.908ZM531.646 126.908V152H535.646V126.908H531.646ZM533.646 150H497.238V154H533.646V150ZM497.238 150C494.209 150 491.35 149.446 488.644 148.344L487.135 152.048C490.334 153.351 493.707 154 497.238 154V150ZM488.702 148.368C485.964 147.152 483.601 145.539 481.596 143.534L478.767 146.362C481.135 148.73 483.911 150.616 487.077 152.024L488.702 148.368ZM481.632 143.571C479.711 141.548 478.137 139.218 476.913 136.566L473.282 138.242C474.682 141.276 476.498 143.974 478.732 146.326L481.632 143.571ZM476.939 136.625C475.848 134.044 475.294 131.249 475.294 128.22H471.294C471.294 131.751 471.942 135.079 473.256 138.183L476.939 136.625ZM475.294 128.22V28.672H471.294V128.22H475.294ZM473.294 30.672H498.386V26.672H473.294V30.672ZM496.386 28.672V56.88H500.386V28.672H496.386ZM498.386 58.88H533.646V54.88H498.386V58.88ZM531.646 56.88V81.972H535.646V56.88H531.646ZM533.646 79.972H498.386V83.972H533.646V79.972ZM625.147 56.88H627.147V54.88H625.147V56.88ZM625.147 81.972V83.972H627.147V81.972H625.147ZM573.815 81.972V79.972H571.815V81.972H573.815ZM573.815 152V154H575.815V152H573.815ZM548.723 152H546.723V154H548.723V152ZM550.527 71.476L548.711 70.6379L548.698 70.6671L548.685 70.6967L550.527 71.476ZM555.775 63.932L557.19 65.3462V65.3462L555.775 63.932ZM563.319 58.848L564.099 60.6899L564.115 60.6829L564.132 60.6756L563.319 58.848ZM623.147 56.88V81.972H627.147V56.88H623.147ZM625.147 79.972H573.815V83.972H625.147V79.972ZM571.815 81.972V152H575.815V81.972H571.815ZM573.815 150H548.723V154H573.815V150ZM550.723 152V80.66H546.723V152H550.723ZM550.723 80.66C550.723 77.6307 551.277 74.8362 552.369 72.2553L548.685 70.6967C547.372 73.8011 546.723 77.1293 546.723 80.66H550.723ZM552.343 72.3141C553.558 69.683 555.172 67.3639 557.19 65.3462L554.361 62.5178C552.005 64.8734 550.121 67.5837 548.711 70.6379L552.343 72.3141ZM557.19 65.3462C559.194 63.3413 561.494 61.792 564.099 60.6899L562.54 57.0061C559.46 58.3093 556.73 60.1493 554.361 62.5178L557.19 65.3462ZM564.132 60.6756C566.824 59.4791 569.663 58.88 572.667 58.88V54.88C569.112 54.88 565.719 55.5929 562.507 57.0204L564.132 60.6756ZM572.667 58.88H625.147V54.88H572.667V58.88ZM717.52 58.848L716.682 60.6639L716.724 60.683L716.766 60.7002L717.52 58.848ZM725.064 63.932L723.614 65.3095L723.632 65.3281L723.65 65.3462L725.064 63.932ZM730.148 71.476L728.306 72.2553L728.319 72.2849L728.332 72.3141L730.148 71.476ZM730.148 137.404L728.332 136.566L728.319 136.595L728.306 136.625L730.148 137.404ZM725.064 144.948L723.65 143.534L723.632 143.552L723.614 143.571L725.064 144.948ZM717.52 150.196L718.3 152.038L718.316 152.031L718.333 152.024L717.52 150.196ZM650.28 150.196L649.442 152.012L649.471 152.025L649.501 152.038L650.28 150.196ZM642.736 144.948L641.322 146.362L642.736 144.948ZM637.488 137.404L635.646 138.183L635.659 138.213L635.672 138.242L637.488 137.404ZM637.488 71.476L635.672 70.6379L635.659 70.6671L635.646 70.6967L637.488 71.476ZM642.736 63.932L644.151 65.3462V65.3462L642.736 63.932ZM650.28 58.848L651.06 60.6899L651.089 60.6774L651.118 60.6639L650.28 58.848ZM660.776 126.908H658.776V128.908H660.776V126.908ZM707.024 126.908V128.908H709.024V126.908H707.024ZM707.024 81.972H709.024V79.972H707.024V81.972ZM660.776 81.972V79.972H658.776V81.972H660.776ZM708.336 58.88C711.341 58.88 714.115 59.479 716.682 60.6639L718.358 57.0321C715.24 55.593 711.892 54.88 708.336 54.88V58.88ZM716.766 60.7002C719.47 61.802 721.744 63.3402 723.614 65.3095L726.514 62.5545C724.23 60.1504 721.475 58.2994 718.275 56.9958L716.766 60.7002ZM723.65 65.3462C725.655 67.3511 727.204 69.6503 728.306 72.2553L731.99 70.6967C730.687 67.6164 728.847 64.8862 726.479 62.5178L723.65 65.3462ZM728.332 72.3141C729.517 74.8815 730.116 77.6553 730.116 80.66H734.116C734.116 77.1047 733.403 73.7558 731.964 70.6379L728.332 72.3141ZM730.116 80.66V128.22H734.116V80.66H730.116ZM730.116 128.22C730.116 131.225 729.517 133.998 728.332 136.566L731.964 138.242C733.403 135.124 734.116 131.775 734.116 128.22H730.116ZM728.306 136.625C727.204 139.23 725.655 141.529 723.65 143.534L726.479 146.362C728.847 143.994 730.687 141.264 731.99 138.183L728.306 136.625ZM723.614 143.571C721.73 145.553 719.437 147.155 716.708 148.368L718.333 152.024C721.507 150.613 724.243 148.716 726.514 146.326L723.614 143.571ZM716.741 148.354C714.16 149.446 711.366 150 708.336 150V154C711.867 154 715.195 153.351 718.3 152.038L716.741 148.354ZM708.336 150H659.464V154H708.336V150ZM659.464 150C656.435 150 653.641 149.446 651.06 148.354L649.501 152.038C652.605 153.351 655.934 154 659.464 154V150ZM651.118 148.38C648.487 147.166 646.168 145.552 644.151 143.534L641.322 146.362C643.678 148.718 646.388 150.602 649.442 152.012L651.118 148.38ZM644.151 143.534C642.133 141.516 640.519 139.197 639.304 136.566L635.672 138.242C637.082 141.296 638.966 144.007 641.322 146.362L644.151 143.534ZM639.33 136.625C638.238 134.044 637.684 131.249 637.684 128.22H633.684C633.684 131.751 634.333 135.079 635.646 138.183L639.33 136.625ZM637.684 128.22V80.66H633.684V128.22H637.684ZM637.684 80.66C637.684 77.6307 638.238 74.8362 639.33 72.2553L635.646 70.6967C634.333 73.8011 633.684 77.1293 633.684 80.66H637.684ZM639.304 72.3141C640.519 69.683 642.133 67.3639 644.151 65.3462L641.322 62.5178C638.966 64.8734 637.082 67.5837 635.672 70.6379L639.304 72.3141ZM644.151 65.3462C646.155 63.3413 648.455 61.792 651.06 60.6899L649.501 57.0061C646.421 58.3093 643.691 60.1493 641.322 62.5178L644.151 65.3462ZM651.118 60.6639C653.686 59.479 656.46 58.88 659.464 58.88V54.88C655.909 54.88 652.56 55.593 649.442 57.0321L651.118 60.6639ZM659.464 58.88H708.336V54.88H659.464V58.88ZM660.776 128.908H707.024V124.908H660.776V128.908ZM709.024 126.908V81.972H705.024V126.908H709.024ZM707.024 79.972H660.776V83.972H707.024V79.972ZM658.776 81.972V126.908H662.776V81.972H658.776ZM826.758 58.848L825.92 60.6639L825.962 60.683L826.004 60.7002L826.758 58.848ZM834.302 63.932L832.852 65.3095L832.87 65.3281L832.888 65.3462L834.302 63.932ZM839.386 71.476L837.544 72.2553L837.557 72.2849L837.57 72.3141L839.386 71.476ZM841.354 152V154H843.354V152H841.354ZM816.262 152H814.262V154H816.262V152ZM816.262 81.972H818.262V79.972H816.262V81.972ZM770.014 81.972V79.972H768.014V81.972H770.014ZM770.014 152V154H772.014V152H770.014ZM744.922 152H742.922V154H744.922V152ZM744.922 56.88V54.88H742.922V56.88H744.922ZM817.574 58.88C820.579 58.88 823.353 59.479 825.92 60.6639L827.597 57.0321C824.479 55.593 821.13 54.88 817.574 54.88V58.88ZM826.004 60.7002C828.708 61.802 830.982 63.3402 832.852 65.3095L835.752 62.5545C833.469 60.1504 830.713 58.2994 827.513 56.9958L826.004 60.7002ZM832.888 65.3462C834.893 67.3511 836.442 69.6503 837.544 72.2553L841.228 70.6967C839.925 67.6164 838.085 64.8862 835.717 62.5178L832.888 65.3462ZM837.57 72.3141C838.755 74.8815 839.354 77.6553 839.354 80.66H843.354C843.354 77.1047 842.641 73.7558 841.202 70.6379L837.57 72.3141ZM839.354 80.66V152H843.354V80.66H839.354ZM841.354 150H816.262V154H841.354V150ZM818.262 152V81.972H814.262V152H818.262ZM816.262 79.972H770.014V83.972H816.262V79.972ZM768.014 81.972V152H772.014V81.972H768.014ZM770.014 150H744.922V154H770.014V150ZM746.922 152V56.88H742.922V152H746.922ZM744.922 58.88H817.574V54.88H744.922V58.88ZM858.786 56.88V54.88H856.786V56.88H858.786ZM883.878 56.88H885.878V54.88H883.878V56.88ZM883.878 152V154H885.878V152H883.878ZM858.786 152H856.786V154H858.786V152ZM883.878 25.72H885.878V23.72H883.878V25.72ZM883.878 50.976V52.976H885.878V50.976H883.878ZM858.786 50.976H856.786V52.976H858.786V50.976ZM858.786 25.72V23.72H856.786V25.72H858.786ZM858.786 58.88H883.878V54.88H858.786V58.88ZM881.878 56.88V152H885.878V56.88H881.878ZM883.878 150H858.786V154H883.878V150ZM860.786 152V56.88H856.786V152H860.786ZM881.878 25.72V50.976H885.878V25.72H881.878ZM883.878 48.976H858.786V52.976H883.878V48.976ZM860.786 50.976V25.72H856.786V50.976H860.786ZM858.786 27.72H883.878V23.72H858.786V27.72ZM1013.36 33.92H1015.36V31.92H1013.36V33.92ZM1013.36 42.612L1014.89 43.8987L1015.36 43.3408V42.612H1013.36ZM971.046 92.96L969.515 91.6733L968.432 92.9621L969.517 94.2492L971.046 92.96ZM1013.36 143.144H1015.36V142.413L1014.89 141.855L1013.36 143.144ZM1013.36 152V154H1015.36V152H1013.36ZM986.954 152L985.429 153.293L986.028 154H986.954V152ZM954.154 113.296L955.68 112.003L954.148 110.195L952.623 112.01L954.154 113.296ZM946.61 122.316L948.125 123.622L948.136 123.609L948.147 123.596L946.61 122.316ZM938.246 132.156L939.779 133.441L938.246 132.156ZM929.718 142.324L931.251 143.609L929.718 142.324ZM921.682 152V154H922.628L923.228 153.269L921.682 152ZM895.278 152H893.278V154H895.278V152ZM895.278 143.308L893.745 142.024L893.278 142.581V143.308H895.278ZM937.426 92.96L938.96 94.2438L940.029 92.9663L938.966 91.6836L937.426 92.96ZM916.434 67.704L914.898 68.9844L916.434 67.704ZM895.278 42.612H893.278V43.3493L893.757 43.9102L895.278 42.612ZM895.278 33.92V31.92H893.278V33.92H895.278ZM921.682 33.92L923.211 32.6301L922.612 31.92H921.682V33.92ZM954.482 72.788L952.954 74.0779L954.524 75.938L956.044 74.0374L954.482 72.788ZM961.862 63.768L960.326 62.4876V62.4876L961.862 63.768ZM970.226 53.928L971.738 55.2379L971.748 55.2256L971.759 55.2132L970.226 53.928ZM978.754 43.76L977.246 42.4464L977.234 42.4605L977.222 42.4748L978.754 43.76ZM986.954 33.92V31.92H985.988L985.387 32.6772L986.954 33.92ZM1011.36 33.92V42.612H1015.36V33.92H1011.36ZM1011.83 41.3253L969.515 91.6733L972.578 94.2467L1014.89 43.8987L1011.83 41.3253ZM969.517 94.2492L1011.83 144.433L1014.89 141.855L972.575 91.6708L969.517 94.2492ZM1011.36 143.144V152H1015.36V143.144H1011.36ZM1013.36 150H986.954V154H1013.36V150ZM988.48 150.707L955.68 112.003L952.629 114.589L985.429 153.293L988.48 150.707ZM952.623 112.01C950.325 114.745 947.809 117.754 945.074 121.036L948.147 123.596C950.879 120.318 953.392 117.313 955.686 114.582L952.623 112.01ZM945.096 121.01C942.356 124.188 939.562 127.475 936.714 130.871L939.779 133.441C942.616 130.058 945.398 126.785 948.125 123.622L945.096 121.01ZM936.714 130.871C933.871 134.26 931.029 137.649 928.186 141.039L931.251 143.609C934.093 140.22 936.936 136.831 939.779 133.441L936.714 130.871ZM928.186 141.039C925.339 144.433 922.656 147.663 920.137 150.731L923.228 153.269C925.738 150.214 928.412 146.994 931.251 143.609L928.186 141.039ZM921.682 150H895.278V154H921.682V150ZM897.278 152V143.308H893.278V152H897.278ZM896.812 144.592L938.96 94.2438L935.893 91.6762L893.745 142.024L896.812 144.592ZM938.966 91.6836C932.077 83.3729 925.079 74.9529 917.971 66.4236L914.898 68.9844C922.004 77.5111 929 85.9284 935.887 94.2364L938.966 91.6836ZM917.971 66.4236C910.859 57.8898 903.802 49.5199 896.8 41.3138L893.757 43.9102C900.749 52.1041 907.796 60.4622 914.898 68.9844L917.971 66.4236ZM897.278 42.612V33.92H893.278V42.612H897.278ZM895.278 35.92H921.682V31.92H895.278V35.92ZM920.154 35.2099L952.954 74.0779L956.011 71.4981L923.211 32.6301L920.154 35.2099ZM956.044 74.0374C958.221 71.3164 960.672 68.3203 963.399 65.0484L960.326 62.4876C957.586 65.7757 955.117 68.7929 952.921 71.5386L956.044 74.0374ZM963.399 65.0484C966.124 61.7784 968.903 58.5083 971.738 55.2379L968.715 52.6181C965.864 55.9077 963.068 59.1976 960.326 62.4876L963.399 65.0484ZM971.759 55.2132C974.601 51.8239 977.444 48.4346 980.287 45.0452L977.222 42.4748C974.379 45.8641 971.537 49.2534 968.694 52.6428L971.759 55.2132ZM980.263 45.0736C983.233 41.6636 985.986 38.3599 988.521 35.1628L985.387 32.6772C982.894 35.8214 980.18 39.0777 977.246 42.4464L980.263 45.0736ZM986.954 35.92H1013.36V31.92H986.954V35.92Z" fill="white"/>
<path d="M125.36 22.92H127.36V20.92H125.36V22.92ZM125.36 48.504V50.504H127.36V48.504H125.36ZM79.112 48.504V46.504H77.112V48.504H79.112ZM79.112 141V143H81.112V141H79.112ZM53.528 141H51.528V143H53.528V141ZM53.528 48.504H55.528V46.504H53.528V48.504ZM7.28 48.504H5.28V50.504H7.28V48.504ZM7.28 22.92V20.92H5.28V22.92H7.28ZM123.36 22.92V48.504H127.36V22.92H123.36ZM125.36 46.504H79.112V50.504H125.36V46.504ZM77.112 48.504V141H81.112V48.504H77.112ZM79.112 139H53.528V143H79.112V139ZM55.528 141V48.504H51.528V141H55.528ZM53.528 46.504H7.28V50.504H53.528V46.504ZM9.28 48.504V22.92H5.28V48.504H9.28ZM7.28 24.92H125.36V20.92H7.28V24.92ZM218.641 47.848L217.803 49.6639L217.845 49.683L217.887 49.7002L218.641 47.848ZM226.185 52.932L224.735 54.3095L224.753 54.3281L224.771 54.3462L226.185 52.932ZM231.269 60.476L229.427 61.2553L229.44 61.2849L229.453 61.3141L231.269 60.476ZM233.237 106.068V108.068H235.237V106.068H233.237ZM161.897 106.068V104.068H159.897V106.068H161.897ZM161.897 115.908H159.897V117.908H161.897V115.908ZM233.237 115.908H235.237V113.908H233.237V115.908ZM233.237 141V143H235.237V141H233.237ZM151.401 139.196L150.563 141.012L150.592 141.025L150.622 141.038L151.401 139.196ZM143.857 133.948L142.443 135.362L143.857 133.948ZM138.609 126.404L136.767 127.183L136.78 127.213L136.793 127.242L138.609 126.404ZM138.609 60.476L136.793 59.6379L136.78 59.6671L136.767 59.6967L138.609 60.476ZM143.857 52.932L145.272 54.3462V54.3462L143.857 52.932ZM151.401 47.848L152.181 49.6899L152.21 49.6774L152.24 49.6639L151.401 47.848ZM208.145 84.092V86.092H210.145V84.092H208.145ZM208.145 70.972H210.145V68.972H208.145V70.972ZM161.897 70.972V68.972H159.897V70.972H161.897ZM161.897 84.092H159.897V86.092H161.897V84.092ZM209.457 47.88C212.462 47.88 215.236 48.479 217.803 49.6639L219.48 46.0321C216.362 44.593 213.013 43.88 209.457 43.88V47.88ZM217.887 49.7002C220.591 50.802 222.865 52.3402 224.735 54.3095L227.635 51.5545C225.352 49.1504 222.596 47.2994 219.396 45.9958L217.887 49.7002ZM224.771 54.3462C226.776 56.3511 228.325 58.6503 229.427 61.2553L233.111 59.6967C231.808 56.6164 229.968 53.8862 227.6 51.5178L224.771 54.3462ZM229.453 61.3141C230.638 63.8815 231.237 66.6553 231.237 69.66H235.237C235.237 66.1047 234.524 62.7558 233.085 59.6379L229.453 61.3141ZM231.237 69.66V106.068H235.237V69.66H231.237ZM233.237 104.068H161.897V108.068H233.237V104.068ZM159.897 106.068V115.908H163.897V106.068H159.897ZM161.897 117.908H233.237V113.908H161.897V117.908ZM231.237 115.908V141H235.237V115.908H231.237ZM233.237 139H160.585V143H233.237V139ZM160.585 139C157.556 139 154.762 138.446 152.181 137.354L150.622 141.038C153.727 142.351 157.055 143 160.585 143V139ZM152.24 137.38C149.608 136.166 147.289 134.552 145.272 132.534L142.443 135.362C144.799 137.718 147.509 139.602 150.563 141.012L152.24 137.38ZM145.272 132.534C143.254 130.516 141.64 128.197 140.425 125.566L136.793 127.242C138.203 130.296 140.088 133.007 142.443 135.362L145.272 132.534ZM140.451 125.625C139.359 123.044 138.805 120.249 138.805 117.22H134.805C134.805 120.751 135.454 124.079 136.767 127.183L140.451 125.625ZM138.805 117.22V69.66H134.805V117.22H138.805ZM138.805 69.66C138.805 66.6307 139.359 63.8362 140.451 61.2553L136.767 59.6967C135.454 62.8011 134.805 66.1293 134.805 69.66H138.805ZM140.425 61.3141C141.64 58.683 143.254 56.3639 145.272 54.3462L142.443 51.5178C140.088 53.8734 138.203 56.5837 136.793 59.6379L140.425 61.3141ZM145.272 54.3462C147.277 52.3413 149.576 50.792 152.181 49.6899L150.622 46.0061C147.542 47.3093 144.812 49.1493 142.443 51.5178L145.272 54.3462ZM152.24 49.6639C154.807 48.479 157.581 47.88 160.585 47.88V43.88C157.03 43.88 153.681 44.593 150.563 46.0321L152.24 49.6639ZM160.585 47.88H209.457V43.88H160.585V47.88ZM210.145 84.092V70.972H206.145V84.092H210.145ZM208.145 68.972H161.897V72.972H208.145V68.972ZM159.897 70.972V84.092H163.897V70.972H159.897ZM161.897 86.092H208.145V82.092H161.897V86.092ZM271.284 70.972V68.972H269.284V70.972H271.284ZM271.284 115.908H269.284V117.908H271.284V115.908ZM342.624 115.908H344.624V113.908H342.624V115.908ZM342.624 141V143H344.624V141H342.624ZM260.788 139.196L259.95 141.012L259.979 141.025L260.009 141.038L260.788 139.196ZM253.244 133.948L251.83 135.362L253.244 133.948ZM247.996 126.404L246.154 127.183L246.167 127.213L246.18 127.242L247.996 126.404ZM247.996 60.476L246.18 59.6379L246.167 59.6671L246.154 59.6967L247.996 60.476ZM253.244 52.932L254.658 54.3462V54.3462L253.244 52.932ZM260.788 47.848L261.567 49.6899L261.597 49.6774L261.626 49.6639L260.788 47.848ZM342.46 45.88H344.46V43.88H342.46V45.88ZM342.46 70.972V72.972H344.46V70.972H342.46ZM269.284 70.972V115.908H273.284V70.972H269.284ZM271.284 117.908H342.624V113.908H271.284V117.908ZM340.624 115.908V141H344.624V115.908H340.624ZM342.624 139H269.972V143H342.624V139ZM269.972 139C266.943 139 264.148 138.446 261.567 137.354L260.009 141.038C263.113 142.351 266.441 143 269.972 143V139ZM261.626 137.38C258.995 136.166 256.676 134.552 254.658 132.534L251.83 135.362C254.186 137.718 256.896 139.602 259.95 141.012L261.626 137.38ZM254.658 132.534C252.641 130.516 251.026 128.197 249.812 125.566L246.18 127.242C247.59 130.296 249.474 133.007 251.83 135.362L254.658 132.534ZM249.838 125.625C248.746 123.044 248.192 120.249 248.192 117.22H244.192C244.192 120.751 244.841 124.079 246.154 127.183L249.838 125.625ZM248.192 117.22V69.66H244.192V117.22H248.192ZM248.192 69.66C248.192 66.6307 248.746 63.8362 249.838 61.2553L246.154 59.6967C244.841 62.8011 244.192 66.1293 244.192 69.66H248.192ZM249.812 61.3141C251.026 58.683 252.641 56.3639 254.658 54.3462L251.83 51.5178C249.474 53.8734 247.59 56.5837 246.18 59.6379L249.812 61.3141ZM254.658 54.3462C256.663 52.3413 258.962 50.792 261.567 49.6899L260.009 46.0061C256.929 47.3093 254.198 49.1493 251.83 51.5178L254.658 54.3462ZM261.626 49.6639C264.194 48.479 266.967 47.88 269.972 47.88V43.88C266.417 43.88 263.068 44.593 259.95 46.0321L261.626 49.6639ZM269.972 47.88H342.46V43.88H269.972V47.88ZM340.46 45.88V70.972H344.46V45.88H340.46ZM342.46 68.972H271.284V72.972H342.46V68.972ZM437.747 47.848L436.909 49.6639L436.938 49.6774L436.967 49.6899L437.747 47.848ZM445.291 52.932L443.876 54.3462V54.3462L445.291 52.932ZM450.375 60.476L448.533 61.2553L448.545 61.2849L448.559 61.3141L450.375 60.476ZM452.343 141V143H454.343V141H452.343ZM427.251 141H425.251V143H427.251V141ZM427.251 70.972H429.251V68.972H427.251V70.972ZM381.003 70.972V68.972H379.003V70.972H381.003ZM381.003 141V143H383.003V141H381.003ZM355.911 141H353.911V143H355.911V141ZM355.911 14.72V12.72H353.911V14.72H355.911ZM381.003 14.72H383.003V12.72H381.003V14.72ZM381.003 45.88H379.003V47.88H381.003V45.88ZM428.563 47.88C431.567 47.88 434.341 48.479 436.909 49.6639L438.585 46.0321C435.467 44.593 432.118 43.88 428.563 43.88V47.88ZM436.967 49.6899C439.572 50.792 441.872 52.3413 443.876 54.3462L446.705 51.5178C444.336 49.1493 441.606 47.3093 438.526 46.0061L436.967 49.6899ZM443.876 54.3462C445.881 56.3511 447.431 58.6503 448.533 61.2553L452.217 59.6967C450.913 56.6164 449.073 53.8862 446.705 51.5178L443.876 54.3462ZM448.559 61.3141C449.744 63.8815 450.343 66.6553 450.343 69.66H454.343C454.343 66.1047 453.63 62.7558 452.191 59.6379L448.559 61.3141ZM450.343 69.66V141H454.343V69.66H450.343ZM452.343 139H427.251V143H452.343V139ZM429.251 141V70.972H425.251V141H429.251ZM427.251 68.972H381.003V72.972H427.251V68.972ZM379.003 70.972V141H383.003V70.972H379.003ZM381.003 139H355.911V143H381.003V139ZM357.911 141V14.72H353.911V141H357.911ZM355.911 16.72H381.003V12.72H355.911V16.72ZM379.003 14.72V45.88H383.003V14.72H379.003ZM381.003 47.88H428.563V43.88H381.003V47.88ZM490.386 70.972V68.972H488.386V70.972H490.386ZM490.386 115.908H488.386V117.908H490.386V115.908ZM525.646 115.908H527.646V113.908H525.646V115.908ZM525.646 141V143H527.646V141H525.646ZM479.89 139.196L479.077 141.024L479.106 141.036L479.135 141.048L479.89 139.196ZM472.182 133.948L470.732 135.326L470.749 135.344L470.767 135.362L472.182 133.948ZM467.098 126.404L465.256 127.183L465.268 127.213L465.282 127.242L467.098 126.404ZM465.294 17.672V15.672H463.294V17.672H465.294ZM490.386 17.672H492.386V15.672H490.386V17.672ZM490.386 45.88H488.386V47.88H490.386V45.88ZM525.646 45.88H527.646V43.88H525.646V45.88ZM525.646 70.972V72.972H527.646V70.972H525.646ZM488.386 70.972V115.908H492.386V70.972H488.386ZM490.386 117.908H525.646V113.908H490.386V117.908ZM523.646 115.908V141H527.646V115.908H523.646ZM525.646 139H489.238V143H525.646V139ZM489.238 139C486.209 139 483.35 138.446 480.644 137.344L479.135 141.048C482.334 142.351 485.707 143 489.238 143V139ZM480.702 137.368C477.964 136.152 475.601 134.539 473.596 132.534L470.767 135.362C473.135 137.73 475.911 139.616 479.077 141.024L480.702 137.368ZM473.632 132.571C471.711 130.548 470.137 128.218 468.913 125.566L465.282 127.242C466.682 130.276 468.498 132.974 470.732 135.326L473.632 132.571ZM468.939 125.625C467.848 123.044 467.294 120.249 467.294 117.22H463.294C463.294 120.751 463.942 124.079 465.256 127.183L468.939 125.625ZM467.294 117.22V17.672H463.294V117.22H467.294ZM465.294 19.672H490.386V15.672H465.294V19.672ZM488.386 17.672V45.88H492.386V17.672H488.386ZM490.386 47.88H525.646V43.88H490.386V47.88ZM523.646 45.88V70.972H527.646V45.88H523.646ZM525.646 68.972H490.386V72.972H525.646V68.972ZM617.147 45.88H619.147V43.88H617.147V45.88ZM617.147 70.972V72.972H619.147V70.972H617.147ZM565.815 70.972V68.972H563.815V70.972H565.815ZM565.815 141V143H567.815V141H565.815ZM540.723 141H538.723V143H540.723V141ZM542.527 60.476L540.711 59.6379L540.698 59.6671L540.685 59.6967L542.527 60.476ZM547.775 52.932L549.19 54.3462V54.3462L547.775 52.932ZM555.319 47.848L556.099 49.6899L556.115 49.6829L556.132 49.6756L555.319 47.848ZM615.147 45.88V70.972H619.147V45.88H615.147ZM617.147 68.972H565.815V72.972H617.147V68.972ZM563.815 70.972V141H567.815V70.972H563.815ZM565.815 139H540.723V143H565.815V139ZM542.723 141V69.66H538.723V141H542.723ZM542.723 69.66C542.723 66.6307 543.277 63.8362 544.369 61.2553L540.685 59.6967C539.372 62.8011 538.723 66.1293 538.723 69.66H542.723ZM544.343 61.3141C545.558 58.683 547.172 56.3639 549.19 54.3462L546.361 51.5178C544.005 53.8734 542.121 56.5837 540.711 59.6379L544.343 61.3141ZM549.19 54.3462C551.194 52.3413 553.494 50.792 556.099 49.6899L554.54 46.0061C551.46 47.3093 548.73 49.1493 546.361 51.5178L549.19 54.3462ZM556.132 49.6756C558.824 48.4791 561.663 47.88 564.667 47.88V43.88C561.112 43.88 557.719 44.5929 554.507 46.0204L556.132 49.6756ZM564.667 47.88H617.147V43.88H564.667V47.88ZM709.52 47.848L708.682 49.6639L708.724 49.683L708.766 49.7002L709.52 47.848ZM717.064 52.932L715.614 54.3095L715.632 54.3281L715.65 54.3462L717.064 52.932ZM722.148 60.476L720.306 61.2553L720.319 61.2849L720.332 61.3141L722.148 60.476ZM722.148 126.404L720.332 125.566L720.319 125.595L720.306 125.625L722.148 126.404ZM717.064 133.948L715.65 132.534L715.632 132.552L715.614 132.571L717.064 133.948ZM709.52 139.196L710.3 141.038L710.316 141.031L710.333 141.024L709.52 139.196ZM642.28 139.196L641.442 141.012L641.471 141.025L641.501 141.038L642.28 139.196ZM634.736 133.948L633.322 135.362L634.736 133.948ZM629.488 126.404L627.646 127.183L627.659 127.213L627.672 127.242L629.488 126.404ZM629.488 60.476L627.672 59.6379L627.659 59.6671L627.646 59.6967L629.488 60.476ZM634.736 52.932L636.151 54.3462V54.3462L634.736 52.932ZM642.28 47.848L643.06 49.6899L643.089 49.6774L643.118 49.6639L642.28 47.848ZM652.776 115.908H650.776V117.908H652.776V115.908ZM699.024 115.908V117.908H701.024V115.908H699.024ZM699.024 70.972H701.024V68.972H699.024V70.972ZM652.776 70.972V68.972H650.776V70.972H652.776ZM700.336 47.88C703.341 47.88 706.115 48.479 708.682 49.6639L710.358 46.0321C707.24 44.593 703.892 43.88 700.336 43.88V47.88ZM708.766 49.7002C711.47 50.802 713.744 52.3402 715.614 54.3095L718.514 51.5545C716.23 49.1504 713.475 47.2994 710.275 45.9958L708.766 49.7002ZM715.65 54.3462C717.655 56.3511 719.204 58.6503 720.306 61.2553L723.99 59.6967C722.687 56.6164 720.847 53.8862 718.479 51.5178L715.65 54.3462ZM720.332 61.3141C721.517 63.8815 722.116 66.6553 722.116 69.66H726.116C726.116 66.1047 725.403 62.7558 723.964 59.6379L720.332 61.3141ZM722.116 69.66V117.22H726.116V69.66H722.116ZM722.116 117.22C722.116 120.225 721.517 122.998 720.332 125.566L723.964 127.242C725.403 124.124 726.116 120.775 726.116 117.22H722.116ZM720.306 125.625C719.204 128.23 717.655 130.529 715.65 132.534L718.479 135.362C720.847 132.994 722.687 130.264 723.99 127.183L720.306 125.625ZM715.614 132.571C713.73 134.553 711.437 136.155 708.708 137.368L710.333 141.024C713.507 139.613 716.243 137.716 718.514 135.326L715.614 132.571ZM708.741 137.354C706.16 138.446 703.366 139 700.336 139V143C703.867 143 707.195 142.351 710.3 141.038L708.741 137.354ZM700.336 139H651.464V143H700.336V139ZM651.464 139C648.435 139 645.641 138.446 643.06 137.354L641.501 141.038C644.605 142.351 647.934 143 651.464 143V139ZM643.118 137.38C640.487 136.166 638.168 134.552 636.151 132.534L633.322 135.362C635.678 137.718 638.388 139.602 641.442 141.012L643.118 137.38ZM636.151 132.534C634.133 130.516 632.519 128.197 631.304 125.566L627.672 127.242C629.082 130.296 630.966 133.007 633.322 135.362L636.151 132.534ZM631.33 125.625C630.238 123.044 629.684 120.249 629.684 117.22H625.684C625.684 120.751 626.333 124.079 627.646 127.183L631.33 125.625ZM629.684 117.22V69.66H625.684V117.22H629.684ZM629.684 69.66C629.684 66.6307 630.238 63.8362 631.33 61.2553L627.646 59.6967C626.333 62.8011 625.684 66.1293 625.684 69.66H629.684ZM631.304 61.3141C632.519 58.683 634.133 56.3639 636.151 54.3462L633.322 51.5178C630.966 53.8734 629.082 56.5837 627.672 59.6379L631.304 61.3141ZM636.151 54.3462C638.155 52.3413 640.455 50.792 643.06 49.6899L641.501 46.0061C638.421 47.3093 635.691 49.1493 633.322 51.5178L636.151 54.3462ZM643.118 49.6639C645.686 48.479 648.46 47.88 651.464 47.88V43.88C647.909 43.88 644.56 44.593 641.442 46.0321L643.118 49.6639ZM651.464 47.88H700.336V43.88H651.464V47.88ZM652.776 117.908H699.024V113.908H652.776V117.908ZM701.024 115.908V70.972H697.024V115.908H701.024ZM699.024 68.972H652.776V72.972H699.024V68.972ZM650.776 70.972V115.908H654.776V70.972H650.776ZM818.758 47.848L817.92 49.6639L817.962 49.683L818.004 49.7002L818.758 47.848ZM826.302 52.932L824.852 54.3095L824.87 54.3281L824.888 54.3462L826.302 52.932ZM831.386 60.476L829.544 61.2553L829.557 61.2849L829.57 61.3141L831.386 60.476ZM833.354 141V143H835.354V141H833.354ZM808.262 141H806.262V143H808.262V141ZM808.262 70.972H810.262V68.972H808.262V70.972ZM762.014 70.972V68.972H760.014V70.972H762.014ZM762.014 141V143H764.014V141H762.014ZM736.922 141H734.922V143H736.922V141ZM736.922 45.88V43.88H734.922V45.88H736.922ZM809.574 47.88C812.579 47.88 815.353 48.479 817.92 49.6639L819.597 46.0321C816.479 44.593 813.13 43.88 809.574 43.88V47.88ZM818.004 49.7002C820.708 50.802 822.982 52.3402 824.852 54.3095L827.752 51.5545C825.469 49.1504 822.713 47.2994 819.513 45.9958L818.004 49.7002ZM824.888 54.3462C826.893 56.3511 828.442 58.6503 829.544 61.2553L833.228 59.6967C831.925 56.6164 830.085 53.8862 827.717 51.5178L824.888 54.3462ZM829.57 61.3141C830.755 63.8815 831.354 66.6553 831.354 69.66H835.354C835.354 66.1047 834.641 62.7558 833.202 59.6379L829.57 61.3141ZM831.354 69.66V141H835.354V69.66H831.354ZM833.354 139H808.262V143H833.354V139ZM810.262 141V70.972H806.262V141H810.262ZM808.262 68.972H762.014V72.972H808.262V68.972ZM760.014 70.972V141H764.014V70.972H760.014ZM762.014 139H736.922V143H762.014V139ZM738.922 141V45.88H734.922V141H738.922ZM736.922 47.88H809.574V43.88H736.922V47.88ZM850.786 45.88V43.88H848.786V45.88H850.786ZM875.878 45.88H877.878V43.88H875.878V45.88ZM875.878 141V143H877.878V141H875.878ZM850.786 141H848.786V143H850.786V141ZM875.878 14.72H877.878V12.72H875.878V14.72ZM875.878 39.976V41.976H877.878V39.976H875.878ZM850.786 39.976H848.786V41.976H850.786V39.976ZM850.786 14.72V12.72H848.786V14.72H850.786ZM850.786 47.88H875.878V43.88H850.786V47.88ZM873.878 45.88V141H877.878V45.88H873.878ZM875.878 139H850.786V143H875.878V139ZM852.786 141V45.88H848.786V141H852.786ZM873.878 14.72V39.976H877.878V14.72H873.878ZM875.878 37.976H850.786V41.976H875.878V37.976ZM852.786 39.976V14.72H848.786V39.976H852.786ZM850.786 16.72H875.878V12.72H850.786V16.72ZM1005.36 22.92H1007.36V20.92H1005.36V22.92ZM1005.36 31.612L1006.89 32.8987L1007.36 32.3408V31.612H1005.36ZM963.046 81.96L961.515 80.6733L960.432 81.9621L961.517 83.2492L963.046 81.96ZM1005.36 132.144H1007.36V131.413L1006.89 130.855L1005.36 132.144ZM1005.36 141V143H1007.36V141H1005.36ZM978.954 141L977.429 142.293L978.028 143H978.954V141ZM946.154 102.296L947.68 101.003L946.148 99.1945L944.623 101.01L946.154 102.296ZM938.61 111.316L940.125 112.622L940.136 112.609L940.147 112.596L938.61 111.316ZM930.246 121.156L931.779 122.441L930.246 121.156ZM921.718 131.324L923.251 132.609L921.718 131.324ZM913.682 141V143H914.628L915.228 142.269L913.682 141ZM887.278 141H885.278V143H887.278V141ZM887.278 132.308L885.745 131.024L885.278 131.581V132.308H887.278ZM929.426 81.96L930.96 83.2438L932.029 81.9663L930.966 80.6836L929.426 81.96ZM908.434 56.704L906.898 57.9844L908.434 56.704ZM887.278 31.612H885.278V32.3493L885.757 32.9102L887.278 31.612ZM887.278 22.92V20.92H885.278V22.92H887.278ZM913.682 22.92L915.211 21.6301L914.612 20.92H913.682V22.92ZM946.482 61.788L944.954 63.0779L946.524 64.938L948.044 63.0374L946.482 61.788ZM953.862 52.768L952.326 51.4876V51.4876L953.862 52.768ZM962.226 42.928L963.738 44.2379L963.748 44.2256L963.759 44.2132L962.226 42.928ZM970.754 32.76L969.246 31.4464L969.234 31.4605L969.222 31.4748L970.754 32.76ZM978.954 22.92V20.92H977.988L977.387 21.6772L978.954 22.92ZM1003.36 22.92V31.612H1007.36V22.92H1003.36ZM1003.83 30.3253L961.515 80.6733L964.578 83.2467L1006.89 32.8987L1003.83 30.3253ZM961.517 83.2492L1003.83 133.433L1006.89 130.855L964.575 80.6708L961.517 83.2492ZM1003.36 132.144V141H1007.36V132.144H1003.36ZM1005.36 139H978.954V143H1005.36V139ZM980.48 139.707L947.68 101.003L944.629 103.589L977.429 142.293L980.48 139.707ZM944.623 101.01C942.325 103.745 939.809 106.754 937.074 110.036L940.147 112.596C942.879 109.318 945.392 106.313 947.686 103.582L944.623 101.01ZM937.096 110.01C934.356 113.188 931.562 116.475 928.714 119.871L931.779 122.441C934.616 119.058 937.398 115.785 940.125 112.622L937.096 110.01ZM928.714 119.871C925.871 123.26 923.029 126.649 920.186 130.039L923.251 132.609C926.093 129.22 928.936 125.831 931.779 122.441L928.714 119.871ZM920.186 130.039C917.339 133.433 914.656 136.663 912.137 139.731L915.228 142.269C917.738 139.214 920.412 135.994 923.251 132.609L920.186 130.039ZM913.682 139H887.278V143H913.682V139ZM889.278 141V132.308H885.278V141H889.278ZM888.812 133.592L930.96 83.2438L927.893 80.6762L885.745 131.024L888.812 133.592ZM930.966 80.6836C924.077 72.3729 917.079 63.9529 909.971 55.4236L906.898 57.9844C914.004 66.5111 921 74.9284 927.887 83.2364L930.966 80.6836ZM909.971 55.4236C902.859 46.8898 895.802 38.5199 888.8 30.3138L885.757 32.9102C892.749 41.1041 899.796 49.4622 906.898 57.9844L909.971 55.4236ZM889.278 31.612V22.92H885.278V31.612H889.278ZM887.278 24.92H913.682V20.92H887.278V24.92ZM912.154 24.2099L944.954 63.0779L948.011 60.4981L915.211 21.6301L912.154 24.2099ZM948.044 63.0374C950.221 60.3164 952.672 57.3203 955.399 54.0484L952.326 51.4876C949.586 54.7757 947.117 57.7929 944.921 60.5386L948.044 63.0374ZM955.399 54.0484C958.124 50.7784 960.903 47.5083 963.738 44.2379L960.715 41.6181C957.864 44.9077 955.068 48.1976 952.326 51.4876L955.399 54.0484ZM963.759 44.2132C966.601 40.8239 969.444 37.4346 972.287 34.0452L969.222 31.4748C966.379 34.8641 963.537 38.2534 960.694 41.6428L963.759 44.2132ZM972.263 34.0736C975.233 30.6636 977.986 27.3599 980.521 24.1628L977.387 21.6772C974.894 24.8214 972.18 28.0777 969.246 31.4464L972.263 34.0736ZM978.954 24.92H1005.36V20.92H978.954V24.92Z" fill="white"/>
<path d="M6.088 233V207.08H29.74V209.996H9.004V218.564H25.672V221.516H9.004V230.084H29.74V233H6.088ZM50.0665 233V212.12H77.6425C78.4585 212.12 79.1905 212.324 79.8385 212.732C80.5105 213.116 81.0385 213.644 81.4225 214.316C81.8065 214.964 81.9985 215.684 81.9985 216.476V233H79.0825V216.476C79.0825 216.092 78.9385 215.768 78.6505 215.504C78.3625 215.216 78.0265 215.072 77.6425 215.072H68.9665C68.5825 215.072 68.2465 215.216 67.9585 215.504C67.6945 215.768 67.5625 216.092 67.5625 216.476V233H64.5745V216.476C64.5745 216.092 64.4305 215.768 64.1425 215.504C63.8785 215.216 63.5545 215.072 63.1705 215.072H54.4585C54.0745 215.072 53.7385 215.216 53.4505 215.504C53.1865 215.768 53.0545 216.092 53.0545 216.476V233H50.0665ZM101.818 241.28V212.12H118.738C119.53 212.12 120.25 212.324 120.898 212.732C121.57 213.116 122.098 213.644 122.482 214.316C122.89 214.964 123.094 215.684 123.094 216.476V228.644C123.094 229.436 122.89 230.168 122.482 230.84C122.098 231.488 121.57 232.016 120.898 232.424C120.25 232.808 119.53 233 118.738 233H104.77V241.28H101.818ZM106.21 230.048H118.738C119.122 230.048 119.446 229.916 119.71 229.652C119.998 229.364 120.142 229.028 120.142 228.644V216.476C120.142 216.092 119.998 215.768 119.71 215.504C119.446 215.216 119.122 215.072 118.738 215.072H106.21C105.826 215.072 105.49 215.216 105.202 215.504C104.914 215.768 104.77 216.092 104.77 216.476V228.644C104.77 229.028 104.914 229.364 105.202 229.652C105.49 229.916 105.826 230.048 106.21 230.048ZM146.532 233C145.74 233 145.008 232.808 144.336 232.424C143.688 232.016 143.16 231.488 142.752 230.84C142.368 230.168 142.176 229.436 142.176 228.644V216.476C142.176 215.684 142.368 214.964 142.752 214.316C143.16 213.644 143.688 213.116 144.336 212.732C145.008 212.324 145.74 212.12 146.532 212.12H159.06C159.876 212.12 160.608 212.324 161.256 212.732C161.928 213.116 162.456 213.644 162.84 214.316C163.248 214.964 163.452 215.684 163.452 216.476V228.644C163.452 229.436 163.248 230.168 162.84 230.84C162.456 231.488 161.928 232.016 161.256 232.424C160.608 232.808 159.876 233 159.06 233H146.532ZM146.532 230.048H159.06C159.444 230.048 159.768 229.916 160.032 229.652C160.32 229.364 160.464 229.028 160.464 228.644V216.476C160.464 216.092 160.32 215.768 160.032 215.504C159.768 215.216 159.444 215.072 159.06 215.072H146.532C146.148 215.072 145.812 215.216 145.524 215.504C145.26 215.768 145.128 216.092 145.128 216.476V228.644C145.128 229.028 145.26 229.364 145.524 229.652C145.812 229.916 146.148 230.048 146.532 230.048ZM190.028 233L181.82 212.12H184.988L191.324 227.672L198.056 212.12H201.944L209.108 227.636L215.012 212.12H218.216L210.332 233H207.776L200 215.756L192.62 233H190.028ZM240.719 233C239.927 233 239.195 232.808 238.523 232.424C237.875 232.016 237.347 231.488 236.939 230.84C236.555 230.168 236.363 229.436 236.363 228.644V216.476C236.363 215.684 236.555 214.964 236.939 214.316C237.347 213.644 237.875 213.116 238.523 212.732C239.195 212.324 239.927 212.12 240.719 212.12H253.247C254.063 212.12 254.795 212.324 255.443 212.732C256.115 213.116 256.643 213.644 257.027 214.316C257.435 214.964 257.639 215.684 257.639 216.476V224.036H239.315V228.644C239.315 229.028 239.447 229.364 239.711 229.652C239.999 229.916 240.335 230.048 240.719 230.048H257.639V233H240.719ZM239.315 221.084H254.651V216.476C254.651 216.092 254.507 215.768 254.219 215.504C253.955 215.216 253.631 215.072 253.247 215.072H240.719C240.335 215.072 239.999 215.216 239.711 215.504C239.447 215.768 239.315 216.092 239.315 216.476V221.084ZM277.709 233V216.476C277.709 215.684 277.901 214.964 278.285 214.316C278.693 213.644 279.221 213.116 279.869 212.732C280.541 212.324 281.273 212.12 282.065 212.12H293.801V215.072H282.065C281.681 215.072 281.345 215.216 281.057 215.504C280.793 215.768 280.661 216.092 280.661 216.476V233H277.709ZM312.059 233V230.048H315.011V233H312.059ZM367.079 233C366.287 233 365.555 232.808 364.883 232.424C364.235 232.04 363.719 231.524 363.335 230.876C362.951 230.204 362.759 229.472 362.759 228.68V211.4C362.759 210.608 362.951 209.888 363.335 209.24C363.719 208.568 364.235 208.04 364.883 207.656C365.555 207.272 366.287 207.08 367.079 207.08H388.607V209.996H367.079C366.695 209.996 366.359 210.14 366.071 210.428C365.807 210.692 365.675 211.016 365.675 211.4V228.68C365.675 229.064 365.807 229.4 366.071 229.688C366.359 229.952 366.695 230.084 367.079 230.084H388.607V233H367.079ZM413.097 233C412.305 233 411.573 232.808 410.901 232.424C410.253 232.016 409.725 231.488 409.317 230.84C408.933 230.168 408.741 229.436 408.741 228.644V216.476C408.741 215.684 408.933 214.964 409.317 214.316C409.725 213.644 410.253 213.116 410.901 212.732C411.573 212.324 412.305 212.12 413.097 212.12H425.625C426.441 212.12 427.173 212.324 427.821 212.732C428.493 213.116 429.021 213.644 429.405 214.316C429.813 214.964 430.017 215.684 430.017 216.476V228.644C430.017 229.436 429.813 230.168 429.405 230.84C429.021 231.488 428.493 232.016 427.821 232.424C427.173 232.808 426.441 233 425.625 233H413.097ZM413.097 230.048H425.625C426.009 230.048 426.333 229.916 426.597 229.652C426.885 229.364 427.029 229.028 427.029 228.644V216.476C427.029 216.092 426.885 215.768 426.597 215.504C426.333 215.216 426.009 215.072 425.625 215.072H413.097C412.713 215.072 412.377 215.216 412.089 215.504C411.825 215.768 411.693 216.092 411.693 216.476V228.644C411.693 229.028 411.825 229.364 412.089 229.652C412.377 229.916 412.713 230.048 413.097 230.048ZM449.807 233V212.12H466.727C467.519 212.12 468.239 212.324 468.887 212.732C469.559 213.116 470.087 213.644 470.471 214.316C470.879 214.964 471.083 215.684 471.083 216.476V233H468.131V216.476C468.131 216.092 467.987 215.768 467.699 215.504C467.435 215.216 467.111 215.072 466.727 215.072H454.199C453.815 215.072 453.479 215.216 453.191 215.504C452.903 215.768 452.759 216.092 452.759 216.476V233H449.807ZM491.434 233V212.12H508.354C509.146 212.12 509.866 212.324 510.514 212.732C511.186 213.116 511.714 213.644 512.098 214.316C512.506 214.964 512.71 215.684 512.71 216.476V233H509.758V216.476C509.758 216.092 509.614 215.768 509.326 215.504C509.062 215.216 508.738 215.072 508.354 215.072H495.826C495.442 215.072 495.106 215.216 494.818 215.504C494.53 215.768 494.386 216.092 494.386 216.476V233H491.434ZM537.308 233C536.516 233 535.784 232.808 535.112 232.424C534.464 232.016 533.936 231.488 533.528 230.84C533.144 230.168 532.952 229.436 532.952 228.644V216.476C532.952 215.684 533.144 214.964 533.528 214.316C533.936 213.644 534.464 213.116 535.112 212.732C535.784 212.324 536.516 212.12 537.308 212.12H549.836C550.652 212.12 551.384 212.324 552.032 212.732C552.704 213.116 553.232 213.644 553.616 214.316C554.024 214.964 554.228 215.684 554.228 216.476V224.036H535.904V228.644C535.904 229.028 536.036 229.364 536.3 229.652C536.588 229.916 536.924 230.048 537.308 230.048H554.228V233H537.308ZM535.904 221.084H551.24V216.476C551.24 216.092 551.096 215.768 550.808 215.504C550.544 215.216 550.22 215.072 549.836 215.072H537.308C536.924 215.072 536.588 215.216 536.3 215.504C536.036 215.768 535.904 216.092 535.904 216.476V221.084ZM578.091 233C577.299 233 576.567 232.808 575.895 232.424C575.247 232.016 574.719 231.488 574.311 230.84C573.927 230.168 573.735 229.436 573.735 228.644V216.476C573.735 215.684 573.927 214.964 574.311 214.316C574.719 213.644 575.247 213.116 575.895 212.732C576.567 212.324 577.299 212.12 578.091 212.12H594.939V215.072H578.091C577.707 215.072 577.371 215.216 577.083 215.504C576.819 215.768 576.687 216.092 576.687 216.476V228.644C576.687 229.028 576.819 229.364 577.083 229.652C577.371 229.916 577.707 230.048 578.091 230.048H595.011V233H578.091ZM618.84 233C618.024 233 617.28 232.808 616.608 232.424C615.96 232.016 615.444 231.488 615.06 230.84C614.676 230.168 614.484 229.436 614.484 228.644V205.28H617.436V212.12H626.472V215.072H617.436V228.644C617.436 229.028 617.568 229.364 617.832 229.652C618.12 229.916 618.456 230.048 618.84 230.048H626.472V233H618.84ZM645.845 233V230.048H648.797V233H645.845ZM696.905 233V207.08H699.857V233H696.905ZM720.732 233V212.12H737.652C738.444 212.12 739.164 212.324 739.812 212.732C740.484 213.116 741.012 213.644 741.396 214.316C741.804 214.964 742.008 215.684 742.008 216.476V233H739.056V216.476C739.056 216.092 738.912 215.768 738.624 215.504C738.36 215.216 738.036 215.072 737.652 215.072H725.124C724.74 215.072 724.404 215.216 724.116 215.504C723.828 215.768 723.684 216.092 723.684 216.476V233H720.732ZM762.359 233V212.12H779.279C780.071 212.12 780.791 212.324 781.439 212.732C782.111 213.116 782.639 213.644 783.023 214.316C783.431 214.964 783.635 215.684 783.635 216.476V233H780.683V216.476C780.683 216.092 780.539 215.768 780.251 215.504C779.987 215.216 779.663 215.072 779.279 215.072H766.751C766.367 215.072 766.031 215.216 765.743 215.504C765.455 215.768 765.311 216.092 765.311 216.476V233H762.359ZM807.706 233C806.914 233 806.182 232.808 805.51 232.424C804.862 232.016 804.334 231.488 803.926 230.84C803.542 230.168 803.35 229.436 803.35 228.644V216.476C803.35 215.684 803.542 214.964 803.926 214.316C804.334 213.644 804.862 213.116 805.51 212.732C806.182 212.324 806.914 212.12 807.706 212.12H820.234C821.05 212.12 821.782 212.324 822.43 212.732C823.102 213.116 823.63 213.644 824.014 214.316C824.422 214.964 824.626 215.684 824.626 216.476V228.644C824.626 229.436 824.422 230.168 824.014 230.84C823.63 231.488 823.102 232.016 822.43 232.424C821.782 232.808 821.05 233 820.234 233H807.706ZM807.706 230.048H820.234C820.618 230.048 820.942 229.916 821.206 229.652C821.494 229.364 821.638 229.028 821.638 228.644V216.476C821.638 216.092 821.494 215.768 821.206 215.504C820.942 215.216 820.618 215.072 820.234 215.072H807.706C807.322 215.072 806.986 215.216 806.698 215.504C806.434 215.768 806.302 216.092 806.302 216.476V228.644C806.302 229.028 806.434 229.364 806.698 229.652C806.986 229.916 807.322 230.048 807.706 230.048ZM854.819 233L843.299 212.12H846.755L856.547 230.12L866.339 212.12H869.795L858.239 233H854.819ZM893.772 233C892.98 233 892.248 232.808 891.576 232.424C890.928 232.016 890.4 231.488 889.992 230.84C889.608 230.168 889.416 229.436 889.416 228.644V221.084H907.704V216.476C907.704 216.092 907.56 215.768 907.272 215.504C907.008 215.216 906.684 215.072 906.3 215.072H889.416V212.12H906.3C907.116 212.12 907.848 212.324 908.496 212.732C909.168 213.116 909.696 213.644 910.08 214.316C910.488 214.964 910.692 215.684 910.692 216.476V233H893.772ZM893.772 230.048H907.704V224.036H892.368V228.644C892.368 229.028 892.5 229.364 892.764 229.652C893.052 229.916 893.388 230.048 893.772 230.048ZM935.364 233C934.548 233 933.804 232.808 933.132 232.424C932.484 232.016 931.968 231.488 931.584 230.84C931.2 230.168 931.008 229.436 931.008 228.644V205.28H933.96V212.12H942.996V215.072H933.96V228.644C933.96 229.028 934.092 229.364 934.356 229.652C934.644 229.916 934.98 230.048 935.364 230.048H942.996V233H935.364ZM966.618 233C965.826 233 965.094 232.808 964.422 232.424C963.774 232.016 963.246 231.488 962.838 230.84C962.454 230.168 962.262 229.436 962.262 228.644V216.476C962.262 215.684 962.454 214.964 962.838 214.316C963.246 213.644 963.774 213.116 964.422 212.732C965.094 212.324 965.826 212.12 966.618 212.12H979.146C979.962 212.12 980.694 212.324 981.342 212.732C982.014 213.116 982.542 213.644 982.926 214.316C983.334 214.964 983.538 215.684 983.538 216.476V224.036H965.214V228.644C965.214 229.028 965.346 229.364 965.61 229.652C965.898 229.916 966.234 230.048 966.618 230.048H983.538V233H966.618ZM965.214 221.084H980.55V216.476C980.55 216.092 980.406 215.768 980.118 215.504C979.854 215.216 979.53 215.072 979.146 215.072H966.618C966.234 215.072 965.898 215.216 965.61 215.504C965.346 215.768 965.214 216.092 965.214 216.476V221.084ZM1003.86 233V230.048H1006.81V233H1003.86Z" fill="url(#paint0_linear_24_568)"/>
<path d="M118.36 8.78376V34.3678H72.112V126.864H46.528V34.3678H0.28V8.78376H118.36ZM202.457 31.7438C205.737 31.7438 208.799 32.3998 211.641 33.7118C214.593 34.9144 217.108 36.6091 219.185 38.7958C221.372 40.9824 223.067 43.4971 224.269 46.3398C225.581 49.1824 226.237 52.2438 226.237 55.5238V91.9318H154.897V101.772H226.237V126.864H153.585C150.305 126.864 147.244 126.262 144.401 125.06C141.559 123.748 139.044 121.998 136.857 119.812C134.671 117.625 132.921 115.11 131.609 112.268C130.407 109.425 129.805 106.364 129.805 103.084V55.5238C129.805 52.2438 130.407 49.1824 131.609 46.3398C132.921 43.4971 134.671 40.9824 136.857 38.7958C139.044 36.6091 141.559 34.9144 144.401 33.7118C147.244 32.3998 150.305 31.7438 153.585 31.7438H202.457ZM201.145 69.9558V56.8358H154.897V69.9558H201.145ZM264.284 56.8358V101.772H335.624V126.864H262.972C259.692 126.864 256.631 126.262 253.788 125.06C250.945 123.748 248.431 121.998 246.244 119.812C244.057 117.625 242.308 115.11 240.996 112.268C239.793 109.425 239.192 106.364 239.192 103.084V55.5238C239.192 52.2438 239.793 49.1824 240.996 46.3398C242.308 43.4971 244.057 40.9824 246.244 38.7958C248.431 36.6091 250.945 34.9144 253.788 33.7118C256.631 32.3998 259.692 31.7438 262.972 31.7438H335.46V56.8358H264.284ZM421.563 31.7438C424.843 31.7438 427.904 32.3998 430.747 33.7118C433.589 34.9144 436.104 36.6091 438.291 38.7958C440.477 40.9824 442.172 43.4971 443.375 46.3398C444.687 49.1824 445.343 52.2438 445.343 55.5238V126.864H420.251V56.8358H374.003V126.864H348.911V0.583763H374.003V31.7438H421.563ZM483.386 56.8358V101.772H518.646V126.864H482.238C478.958 126.864 475.842 126.262 472.89 125.06C469.938 123.748 467.368 121.998 465.182 119.812C463.104 117.625 461.41 115.11 460.098 112.268C458.895 109.425 458.294 106.364 458.294 103.084V3.53576H483.386V31.7438H518.646V56.8358H483.386ZM610.147 31.7438V56.8358H558.815V126.864H533.723V55.5238C533.723 52.2438 534.325 49.1824 535.527 46.3398C536.839 43.4971 538.589 40.9824 540.775 38.7958C542.962 36.6091 545.477 34.9144 548.319 33.7118C551.271 32.3998 554.387 31.7438 557.667 31.7438H610.147ZM693.336 31.7438C696.616 31.7438 699.678 32.3998 702.52 33.7118C705.472 34.9144 707.987 36.6091 710.064 38.7958C712.251 40.9824 713.946 43.4971 715.148 46.3398C716.46 49.1824 717.116 52.2438 717.116 55.5238V103.084C717.116 106.364 716.46 109.425 715.148 112.268C713.946 115.11 712.251 117.625 710.064 119.812C707.987 121.998 705.472 123.748 702.52 125.06C699.678 126.262 696.616 126.864 693.336 126.864H644.464C641.184 126.864 638.123 126.262 635.28 125.06C632.438 123.748 629.923 121.998 627.736 119.812C625.55 117.625 623.8 115.11 622.488 112.268C621.286 109.425 620.684 106.364 620.684 103.084V55.5238C620.684 52.2438 621.286 49.1824 622.488 46.3398C623.8 43.4971 625.55 40.9824 627.736 38.7958C629.923 36.6091 632.438 34.9144 635.28 33.7118C638.123 32.3998 641.184 31.7438 644.464 31.7438H693.336ZM645.776 101.772H692.024V56.8358H645.776V101.772ZM802.574 31.7438C805.854 31.7438 808.916 32.3998 811.758 33.7118C814.71 34.9144 817.225 36.6091 819.302 38.7958C821.489 40.9824 823.184 43.4971 824.386 46.3398C825.698 49.1824 826.354 52.2438 826.354 55.5238V126.864H801.262V56.8358H755.014V126.864H729.922V31.7438H802.574ZM843.786 31.7438H868.878V126.864H843.786V31.7438ZM868.878 0.583763V25.8398H843.786V0.583763H868.878ZM998.358 8.78376V17.4758L956.046 67.8238L998.358 118.008V126.864H971.954L939.154 88.1598C936.858 90.8931 934.344 93.8998 931.61 97.1798C928.877 100.35 926.089 103.63 923.246 107.02C920.404 110.409 917.561 113.798 914.718 117.188C911.876 120.577 909.197 123.802 906.682 126.864H880.278V118.172L922.426 67.8238C915.538 59.5144 908.541 51.0958 901.434 42.5678C894.328 34.0398 887.276 25.6758 880.278 17.4758V8.78376H906.682L939.482 47.6518C941.669 44.9184 944.129 41.9118 946.862 38.6318C949.596 35.3518 952.384 32.0718 955.226 28.7918C958.069 25.4024 960.912 22.0131 963.754 18.6238C966.706 15.2344 969.44 11.9544 971.954 8.78376H998.358Z" fill="url(#paint1_linear_24_568)"/>
<defs>
<linearGradient id="paint0_linear_24_568" x1="507.5" y1="197" x2="507" y2="330" gradientUnits="userSpaceOnUse">
<stop stop-color="white"/>
<stop offset="1" stop-color="white" stop-opacity="0"/>
</linearGradient>
<linearGradient id="paint1_linear_24_568" x1="507.5" y1="3.86377" x2="507.5" y2="227.696" gradientUnits="userSpaceOnUse">
<stop stop-color="#DDA04B"/>
<stop offset="0.9375" stop-color="#FCEFBB"/>
</linearGradient>
</defs>
</svg>
